<svg width="335" height="490" viewBox="0 0 335 490" fill="none" xmlns="http://www.w3.org/2000/svg">
<g filter="url(#filter0_i_122_4048)">
<rect width="300" height="40" transform="translate(0 -0.000976562)" fill="#EB39C4"/>
<path d="M25.01 14.499V24.999H22.04V16.794H20.09V14.499H25.01ZM31.2241 25.209C30.3241 25.209 29.5241 24.994 28.8241 24.564C28.1241 24.134 27.5741 23.509 27.1741 22.689C26.7841 21.859 26.5891 20.879 26.5891 19.749C26.5891 18.619 26.7841 17.644 27.1741 16.824C27.5741 15.994 28.1241 15.364 28.8241 14.934C29.5241 14.504 30.3241 14.289 31.2241 14.289C32.1141 14.289 32.9091 14.504 33.6091 14.934C34.3091 15.364 34.8541 15.994 35.2441 16.824C35.6441 17.644 35.8441 18.619 35.8441 19.749C35.8441 20.879 35.6441 21.859 35.2441 22.689C34.8541 23.509 34.3091 24.134 33.6091 24.564C32.9091 24.994 32.1141 25.209 31.2241 25.209ZM31.2241 22.779C31.7241 22.779 32.1191 22.539 32.4091 22.059C32.7091 21.569 32.8591 20.799 32.8591 19.749C32.8591 18.699 32.7091 17.934 32.4091 17.454C32.1191 16.964 31.7241 16.719 31.2241 16.719C30.7141 16.719 30.3091 16.964 30.0091 17.454C29.7191 17.934 29.5741 18.699 29.5741 19.749C29.5741 20.799 29.7191 21.569 30.0091 22.059C30.3091 22.539 30.7141 22.779 31.2241 22.779ZM39.3627 20.184C38.5727 20.184 37.9277 19.924 37.4277 19.404C36.9277 18.884 36.6777 18.174 36.6777 17.274C36.6777 16.684 36.7927 16.169 37.0227 15.729C37.2527 15.289 37.5677 14.954 37.9677 14.724C38.3777 14.484 38.8427 14.364 39.3627 14.364C40.1627 14.364 40.8127 14.629 41.3127 15.159C41.8127 15.679 42.0627 16.384 42.0627 17.274C42.0627 18.174 41.8127 18.884 41.3127 19.404C40.8127 19.924 40.1627 20.184 39.3627 20.184ZM45.5727 14.499H47.7327L40.5627 24.999H38.4027L45.5727 14.499ZM39.3627 18.759C39.6327 18.759 39.8477 18.639 40.0077 18.399C40.1677 18.159 40.2477 17.784 40.2477 17.274C40.2477 16.764 40.1677 16.389 40.0077 16.149C39.8477 15.909 39.6327 15.789 39.3627 15.789C39.1027 15.789 38.8877 15.914 38.7177 16.164C38.5577 16.404 38.4777 16.774 38.4777 17.274C38.4777 17.774 38.5577 18.149 38.7177 18.399C38.8877 18.639 39.1027 18.759 39.3627 18.759ZM46.7727 25.134C45.9727 25.134 45.3227 24.874 44.8227 24.354C44.3327 23.834 44.0877 23.124 44.0877 22.224C44.0877 21.334 44.3377 20.629 44.8377 20.109C45.3377 19.579 45.9827 19.314 46.7727 19.314C47.5727 19.314 48.2227 19.579 48.7227 20.109C49.2227 20.629 49.4727 21.334 49.4727 22.224C49.4727 23.124 49.2227 23.834 48.7227 24.354C48.2227 24.874 47.5727 25.134 46.7727 25.134ZM46.7727 23.709C47.0427 23.709 47.2577 23.589 47.4177 23.349C47.5777 23.109 47.6577 22.734 47.6577 22.224C47.6577 21.714 47.5777 21.339 47.4177 21.099C47.2577 20.859 47.0427 20.739 46.7727 20.739C46.5027 20.739 46.2877 20.859 46.1277 21.099C45.9677 21.339 45.8877 21.714 45.8877 22.224C45.8877 22.734 45.9677 23.109 46.1277 23.349C46.2877 23.589 46.5027 23.709 46.7727 23.709Z" fill="white"/>
<path d="M65.67 14.499C67.03 14.499 68.1 14.824 68.88 15.474C69.66 16.124 70.05 17.019 70.05 18.159C70.05 19.299 69.66 20.194 68.88 20.844C68.1 21.494 67.03 21.819 65.67 21.819H63.075V24.999H61.575V14.499H65.67ZM65.625 20.514C66.575 20.514 67.3 20.314 67.8 19.914C68.3 19.504 68.55 18.919 68.55 18.159C68.55 17.399 68.3 16.819 67.8 16.419C67.3 16.009 66.575 15.804 65.625 15.804H63.075V20.514H65.625ZM78.4164 22.374H72.8364L71.6814 24.999H70.1364L74.8914 14.499H76.3764L81.1464 24.999H79.5714L78.4164 22.374ZM77.8914 21.174L75.6264 16.029L73.3614 21.174H77.8914ZM89.7327 24.999L87.4677 21.774C87.1877 21.794 86.9677 21.804 86.8077 21.804H84.2127V24.999H82.7127V14.499H86.8077C88.1677 14.499 89.2377 14.824 90.0177 15.474C90.7977 16.124 91.1877 17.019 91.1877 18.159C91.1877 18.969 90.9877 19.659 90.5877 20.229C90.1877 20.799 89.6177 21.214 88.8777 21.474L91.3677 24.999H89.7327ZM86.7627 20.529C87.7127 20.529 88.4377 20.324 88.9377 19.914C89.4377 19.504 89.6877 18.919 89.6877 18.159C89.6877 17.399 89.4377 16.819 88.9377 16.419C88.4377 16.009 87.7127 15.804 86.7627 15.804H84.2127V20.529H86.7627ZM95.5496 15.804H91.9496V14.499H100.635V15.804H97.0346V24.999H95.5496V15.804ZM111.298 14.499V24.999H110.068L103.768 17.169V24.999H102.268V14.499H103.498L109.798 22.329V14.499H111.298ZM122.061 23.694V24.999H114.441V14.499H121.851V15.804H115.941V19.029H121.206V20.304H115.941V23.694H122.061ZM131.51 24.999L129.245 21.774C128.965 21.794 128.745 21.804 128.585 21.804H125.99V24.999H124.49V14.499H128.585C129.945 14.499 131.015 14.824 131.795 15.474C132.575 16.124 132.965 17.019 132.965 18.159C132.965 18.969 132.765 19.659 132.365 20.229C131.965 20.799 131.395 21.214 130.655 21.474L133.145 24.999H131.51ZM128.54 20.529C129.49 20.529 130.215 20.324 130.715 19.914C131.215 19.504 131.465 18.919 131.465 18.159C131.465 17.399 131.215 16.819 130.715 16.419C130.215 16.009 129.49 15.804 128.54 15.804H125.99V20.529H128.54ZM138.448 25.119C137.658 25.119 136.893 24.999 136.153 24.759C135.423 24.509 134.848 24.189 134.428 23.799L134.983 22.629C135.383 22.989 135.893 23.284 136.513 23.514C137.143 23.734 137.788 23.844 138.448 23.844C139.318 23.844 139.968 23.699 140.398 23.409C140.828 23.109 141.043 22.714 141.043 22.224C141.043 21.864 140.923 21.574 140.683 21.354C140.453 21.124 140.163 20.949 139.813 20.829C139.473 20.709 138.988 20.574 138.358 20.424C137.568 20.234 136.928 20.044 136.438 19.854C135.958 19.664 135.543 19.374 135.193 18.984C134.853 18.584 134.683 18.049 134.683 17.379C134.683 16.819 134.828 16.314 135.118 15.864C135.418 15.414 135.868 15.054 136.468 14.784C137.068 14.514 137.813 14.379 138.703 14.379C139.323 14.379 139.933 14.459 140.533 14.619C141.133 14.779 141.648 15.009 142.078 15.309L141.583 16.509C141.143 16.229 140.673 16.019 140.173 15.879C139.673 15.729 139.183 15.654 138.703 15.654C137.853 15.654 137.213 15.809 136.783 16.119C136.363 16.429 136.153 16.829 136.153 17.319C136.153 17.679 136.273 17.974 136.513 18.204C136.753 18.424 137.048 18.599 137.398 18.729C137.758 18.849 138.243 18.979 138.853 19.119C139.643 19.309 140.278 19.499 140.758 19.689C141.238 19.879 141.648 20.169 141.988 20.559C142.338 20.949 142.513 21.474 142.513 22.134C142.513 22.684 142.363 23.189 142.063 23.649C141.763 24.099 141.308 24.459 140.698 24.729C140.088 24.989 139.338 25.119 138.448 25.119ZM153.735 14.499V24.999H152.235V20.319H146.205V24.999H144.705V14.499H146.205V19.014H152.235V14.499H153.735ZM156.878 14.499H158.378V24.999H156.878V14.499ZM165.616 14.499C166.976 14.499 168.046 14.824 168.826 15.474C169.606 16.124 169.996 17.019 169.996 18.159C169.996 19.299 169.606 20.194 168.826 20.844C168.046 21.494 166.976 21.819 165.616 21.819H163.021V24.999H161.521V14.499H165.616ZM165.571 20.514C166.521 20.514 167.246 20.314 167.746 19.914C168.246 19.504 168.496 18.919 168.496 18.159C168.496 17.399 168.246 16.819 167.746 16.419C167.246 16.009 166.521 15.804 165.571 15.804H163.021V20.514H165.571ZM175.406 25.119C174.616 25.119 173.851 24.999 173.111 24.759C172.381 24.509 171.806 24.189 171.386 23.799L171.941 22.629C172.341 22.989 172.851 23.284 173.471 23.514C174.101 23.734 174.746 23.844 175.406 23.844C176.276 23.844 176.926 23.699 177.356 23.409C177.786 23.109 178.001 22.714 178.001 22.224C178.001 21.864 177.881 21.574 177.641 21.354C177.411 21.124 177.121 20.949 176.771 20.829C176.431 20.709 175.946 20.574 175.316 20.424C174.526 20.234 173.886 20.044 173.396 19.854C172.916 19.664 172.501 19.374 172.151 18.984C171.811 18.584 171.641 18.049 171.641 17.379C171.641 16.819 171.786 16.314 172.076 15.864C172.376 15.414 172.826 15.054 173.426 14.784C174.026 14.514 174.771 14.379 175.661 14.379C176.281 14.379 176.891 14.459 177.491 14.619C178.091 14.779 178.606 15.009 179.036 15.309L178.541 16.509C178.101 16.229 177.631 16.019 177.131 15.879C176.631 15.729 176.141 15.654 175.661 15.654C174.811 15.654 174.171 15.809 173.741 16.119C173.321 16.429 173.111 16.829 173.111 17.319C173.111 17.679 173.231 17.974 173.471 18.204C173.711 18.424 174.006 18.599 174.356 18.729C174.716 18.849 175.201 18.979 175.811 19.119C176.601 19.309 177.236 19.499 177.716 19.689C178.196 19.879 178.606 20.169 178.946 20.559C179.296 20.949 179.471 21.474 179.471 22.134C179.471 22.684 179.321 23.189 179.021 23.649C178.721 24.099 178.266 24.459 177.656 24.729C177.046 24.989 176.296 25.119 175.406 25.119Z" fill="white"/>
</g>
<g filter="url(#filter1_i_122_4048)">
<rect width="300" height="40" transform="translate(0 44.999)" fill="#4ABFE4"/>
<path d="M25.01 59.499V69.999H22.04V61.794H20.09V59.499H25.01ZM31.2241 70.209C30.3241 70.209 29.5241 69.994 28.8241 69.564C28.1241 69.134 27.5741 68.509 27.1741 67.689C26.7841 66.859 26.5891 65.879 26.5891 64.749C26.5891 63.619 26.7841 62.644 27.1741 61.824C27.5741 60.994 28.1241 60.364 28.8241 59.934C29.5241 59.504 30.3241 59.289 31.2241 59.289C32.1141 59.289 32.9091 59.504 33.6091 59.934C34.3091 60.364 34.8541 60.994 35.2441 61.824C35.6441 62.644 35.8441 63.619 35.8441 64.749C35.8441 65.879 35.6441 66.859 35.2441 67.689C34.8541 68.509 34.3091 69.134 33.6091 69.564C32.9091 69.994 32.1141 70.209 31.2241 70.209ZM31.2241 67.779C31.7241 67.779 32.1191 67.539 32.4091 67.059C32.7091 66.569 32.8591 65.799 32.8591 64.749C32.8591 63.699 32.7091 62.934 32.4091 62.454C32.1191 61.964 31.7241 61.719 31.2241 61.719C30.7141 61.719 30.3091 61.964 30.0091 62.454C29.7191 62.934 29.5741 63.699 29.5741 64.749C29.5741 65.799 29.7191 66.569 30.0091 67.059C30.3091 67.539 30.7141 67.779 31.2241 67.779ZM39.3627 65.184C38.5727 65.184 37.9277 64.924 37.4277 64.404C36.9277 63.884 36.6777 63.174 36.6777 62.274C36.6777 61.684 36.7927 61.169 37.0227 60.729C37.2527 60.289 37.5677 59.954 37.9677 59.724C38.3777 59.484 38.8427 59.364 39.3627 59.364C40.1627 59.364 40.8127 59.629 41.3127 60.159C41.8127 60.679 42.0627 61.384 42.0627 62.274C42.0627 63.174 41.8127 63.884 41.3127 64.404C40.8127 64.924 40.1627 65.184 39.3627 65.184ZM45.5727 59.499H47.7327L40.5627 69.999H38.4027L45.5727 59.499ZM39.3627 63.759C39.6327 63.759 39.8477 63.639 40.0077 63.399C40.1677 63.159 40.2477 62.784 40.2477 62.274C40.2477 61.764 40.1677 61.389 40.0077 61.149C39.8477 60.909 39.6327 60.789 39.3627 60.789C39.1027 60.789 38.8877 60.914 38.7177 61.164C38.5577 61.404 38.4777 61.774 38.4777 62.274C38.4777 62.774 38.5577 63.149 38.7177 63.399C38.8877 63.639 39.1027 63.759 39.3627 63.759ZM46.7727 70.134C45.9727 70.134 45.3227 69.874 44.8227 69.354C44.3327 68.834 44.0877 68.124 44.0877 67.224C44.0877 66.334 44.3377 65.629 44.8377 65.109C45.3377 64.579 45.9827 64.314 46.7727 64.314C47.5727 64.314 48.2227 64.579 48.7227 65.109C49.2227 65.629 49.4727 66.334 49.4727 67.224C49.4727 68.124 49.2227 68.834 48.7227 69.354C48.2227 69.874 47.5727 70.134 46.7727 70.134ZM46.7727 68.709C47.0427 68.709 47.2577 68.589 47.4177 68.349C47.5777 68.109 47.6577 67.734 47.6577 67.224C47.6577 66.714 47.5777 66.339 47.4177 66.099C47.2577 65.859 47.0427 65.739 46.7727 65.739C46.5027 65.739 46.2877 65.859 46.1277 66.099C45.9677 66.339 45.8877 66.714 45.8877 67.224C45.8877 67.734 45.9677 68.109 46.1277 68.349C46.2877 68.589 46.5027 68.709 46.7727 68.709Z" fill="white"/>
<path d="M71.31 69.999L71.295 62.349L67.5 68.724H66.81L63.015 62.394V69.999H61.575V59.499H62.805L67.185 66.879L71.505 59.499H72.735L72.75 69.999H71.31ZM83.5212 68.694V69.999H75.9012V59.499H83.3112V60.804H77.4012V64.029H82.6662V65.304H77.4012V68.694H83.5212ZM88.035 60.804H84.435V59.499H93.12V60.804H89.52V69.999H88.035V60.804ZM100.916 67.374H95.3364L94.1814 69.999H92.6364L97.3914 59.499H98.8764L103.646 69.999H102.071L100.916 67.374ZM100.391 66.174L98.1264 61.029L95.8614 66.174H100.391ZM112.341 64.689H113.781V68.784C113.261 69.214 112.656 69.544 111.966 69.774C111.276 70.004 110.556 70.119 109.806 70.119C108.746 70.119 107.791 69.889 106.941 69.429C106.091 68.959 105.421 68.319 104.931 67.509C104.451 66.689 104.211 65.769 104.211 64.749C104.211 63.729 104.451 62.809 104.931 61.989C105.421 61.169 106.091 60.529 106.941 60.069C107.801 59.609 108.766 59.379 109.836 59.379C110.676 59.379 111.436 59.519 112.116 59.799C112.806 60.069 113.391 60.469 113.871 60.999L112.941 61.929C112.101 61.119 111.086 60.714 109.896 60.714C109.096 60.714 108.376 60.889 107.736 61.239C107.106 61.579 106.611 62.059 106.251 62.679C105.891 63.289 105.711 63.979 105.711 64.749C105.711 65.509 105.891 66.199 106.251 66.819C106.611 67.429 107.106 67.909 107.736 68.259C108.376 68.609 109.091 68.784 109.881 68.784C110.821 68.784 111.641 68.559 112.341 68.109V64.689ZM124.273 68.694V69.999H116.653V59.499H124.063V60.804H118.153V64.029H123.418V65.304H118.153V68.694H124.273ZM135.732 59.499V69.999H134.502L128.202 62.169V69.999H126.702V59.499H127.932L134.232 67.329V59.499H135.732ZM146.495 68.694V69.999H138.875V59.499H146.285V60.804H140.375V64.029H145.64V65.304H140.375V68.694H146.495ZM154.452 60.804V64.464H159.717V65.754H154.452V69.999H152.952V59.499H160.362V60.804H154.452ZM167.096 70.119C166.036 70.119 165.081 69.889 164.231 69.429C163.381 68.959 162.711 68.314 162.221 67.494C161.741 66.674 161.501 65.759 161.501 64.749C161.501 63.739 161.741 62.824 162.221 62.004C162.711 61.184 163.381 60.544 164.231 60.084C165.081 59.614 166.036 59.379 167.096 59.379C168.146 59.379 169.096 59.614 169.946 60.084C170.796 60.544 171.461 61.184 171.941 62.004C172.421 62.814 172.661 63.729 172.661 64.749C172.661 65.769 172.421 66.689 171.941 67.509C171.461 68.319 170.796 68.959 169.946 69.429C169.096 69.889 168.146 70.119 167.096 70.119ZM167.096 68.784C167.866 68.784 168.556 68.609 169.166 68.259C169.786 67.909 170.271 67.429 170.621 66.819C170.981 66.199 171.161 65.509 171.161 64.749C171.161 63.989 170.981 63.304 170.621 62.694C170.271 62.074 169.786 61.589 169.166 61.239C168.556 60.889 167.866 60.714 167.096 60.714C166.326 60.714 165.626 60.889 164.996 61.239C164.376 61.589 163.886 62.074 163.526 62.694C163.176 63.304 163.001 63.989 163.001 64.749C163.001 65.509 163.176 66.199 163.526 66.819C163.886 67.429 164.376 67.909 164.996 68.259C165.626 68.609 166.326 68.784 167.096 68.784ZM179.304 70.119C177.904 70.119 176.814 69.719 176.034 68.919C175.254 68.119 174.864 66.969 174.864 65.469V59.499H176.364V65.409C176.364 67.659 177.349 68.784 179.319 68.784C180.279 68.784 181.014 68.509 181.524 67.959C182.034 67.399 182.289 66.549 182.289 65.409V59.499H183.744V65.469C183.744 66.979 183.354 68.134 182.574 68.934C181.794 69.724 180.704 70.119 179.304 70.119ZM195.849 59.499V69.999H194.619L188.319 62.169V69.999H186.819V59.499H188.049L194.349 67.329V59.499H195.849ZM198.992 59.499H203.417C204.527 59.499 205.512 59.719 206.372 60.159C207.232 60.599 207.897 61.219 208.367 62.019C208.847 62.809 209.087 63.719 209.087 64.749C209.087 65.779 208.847 66.694 208.367 67.494C207.897 68.284 207.232 68.899 206.372 69.339C205.512 69.779 204.527 69.999 203.417 69.999H198.992V59.499ZM203.327 68.694C204.177 68.694 204.922 68.529 205.562 68.199C206.212 67.869 206.712 67.409 207.062 66.819C207.412 66.219 207.587 65.529 207.587 64.749C207.587 63.969 207.412 63.284 207.062 62.694C206.712 62.094 206.212 61.629 205.562 61.299C204.922 60.969 204.177 60.804 203.327 60.804H200.492V68.694H203.327ZM217.928 67.374H212.348L211.193 69.999H209.648L214.403 59.499H215.888L220.658 69.999H219.083L217.928 67.374ZM217.403 66.174L215.138 61.029L212.873 66.174H217.403ZM223.782 60.804H220.182V59.499H228.867V60.804H225.267V69.999H223.782V60.804ZM230.501 59.499H232.001V69.999H230.501V59.499ZM239.884 70.119C238.824 70.119 237.869 69.889 237.019 69.429C236.169 68.959 235.499 68.314 235.009 67.494C234.529 66.674 234.289 65.759 234.289 64.749C234.289 63.739 234.529 62.824 235.009 62.004C235.499 61.184 236.169 60.544 237.019 60.084C237.869 59.614 238.824 59.379 239.884 59.379C240.934 59.379 241.884 59.614 242.734 60.084C243.584 60.544 244.249 61.184 244.729 62.004C245.209 62.814 245.449 63.729 245.449 64.749C245.449 65.769 245.209 66.689 244.729 67.509C244.249 68.319 243.584 68.959 242.734 69.429C241.884 69.889 240.934 70.119 239.884 70.119ZM239.884 68.784C240.654 68.784 241.344 68.609 241.954 68.259C242.574 67.909 243.059 67.429 243.409 66.819C243.769 66.199 243.949 65.509 243.949 64.749C243.949 63.989 243.769 63.304 243.409 62.694C243.059 62.074 242.574 61.589 241.954 61.239C241.344 60.889 240.654 60.714 239.884 60.714C239.114 60.714 238.414 60.889 237.784 61.239C237.164 61.589 236.674 62.074 236.314 62.694C235.964 63.304 235.789 63.989 235.789 64.749C235.789 65.509 235.964 66.199 236.314 66.819C236.674 67.429 237.164 67.909 237.784 68.259C238.414 68.609 239.114 68.784 239.884 68.784ZM256.772 59.499V69.999H255.542L249.242 62.169V69.999H247.742V59.499H248.972L255.272 67.329V59.499H256.772Z" fill="white"/>
</g>
<g filter="url(#filter2_i_122_4048)">
<rect width="246" height="40" transform="translate(0 89.999)" fill="#7322DB"/>
<path d="M28.07 109.464C28.55 109.744 28.92 110.089 29.18 110.499C29.44 110.909 29.57 111.379 29.57 111.909C29.57 112.569 29.38 113.149 29 113.649C28.62 114.149 28.085 114.534 27.395 114.804C26.705 115.074 25.91 115.209 25.01 115.209C24.11 115.209 23.315 115.074 22.625 114.804C21.935 114.534 21.4 114.149 21.02 113.649C20.64 113.149 20.45 112.569 20.45 111.909C20.45 111.379 20.58 110.909 20.84 110.499C21.1 110.089 21.47 109.744 21.95 109.464C21.59 109.214 21.31 108.909 21.11 108.549C20.92 108.189 20.825 107.789 20.825 107.349C20.825 106.739 21 106.204 21.35 105.744C21.7 105.274 22.19 104.914 22.82 104.664C23.46 104.414 24.19 104.289 25.01 104.289C25.83 104.289 26.555 104.414 27.185 104.664C27.825 104.914 28.32 105.274 28.67 105.744C29.02 106.204 29.195 106.739 29.195 107.349C29.195 107.789 29.095 108.189 28.895 108.549C28.705 108.909 28.43 109.214 28.07 109.464ZM25.01 106.374C24.64 106.374 24.34 106.474 24.11 106.674C23.88 106.864 23.765 107.134 23.765 107.484C23.765 107.824 23.875 108.094 24.095 108.294C24.325 108.484 24.63 108.579 25.01 108.579C25.39 108.579 25.695 108.484 25.925 108.294C26.155 108.094 26.27 107.824 26.27 107.484C26.27 107.134 26.155 106.864 25.925 106.674C25.695 106.474 25.39 106.374 25.01 106.374ZM25.01 113.124C25.49 113.124 25.87 113.009 26.15 112.779C26.44 112.539 26.585 112.219 26.585 111.819C26.585 111.419 26.44 111.104 26.15 110.874C25.87 110.634 25.49 110.514 25.01 110.514C24.53 110.514 24.145 110.634 23.855 110.874C23.575 111.104 23.435 111.419 23.435 111.819C23.435 112.219 23.575 112.539 23.855 112.779C24.145 113.009 24.53 113.124 25.01 113.124ZM32.9027 110.184C32.1127 110.184 31.4677 109.924 30.9677 109.404C30.4677 108.884 30.2177 108.174 30.2177 107.274C30.2177 106.684 30.3327 106.169 30.5627 105.729C30.7927 105.289 31.1077 104.954 31.5077 104.724C31.9177 104.484 32.3827 104.364 32.9027 104.364C33.7027 104.364 34.3527 104.629 34.8527 105.159C35.3527 105.679 35.6027 106.384 35.6027 107.274C35.6027 108.174 35.3527 108.884 34.8527 109.404C34.3527 109.924 33.7027 110.184 32.9027 110.184ZM39.1127 104.499H41.2727L34.1027 114.999H31.9427L39.1127 104.499ZM32.9027 108.759C33.1727 108.759 33.3877 108.639 33.5477 108.399C33.7077 108.159 33.7877 107.784 33.7877 107.274C33.7877 106.764 33.7077 106.389 33.5477 106.149C33.3877 105.909 33.1727 105.789 32.9027 105.789C32.6427 105.789 32.4277 105.914 32.2577 106.164C32.0977 106.404 32.0177 106.774 32.0177 107.274C32.0177 107.774 32.0977 108.149 32.2577 108.399C32.4277 108.639 32.6427 108.759 32.9027 108.759ZM40.3127 115.134C39.5127 115.134 38.8627 114.874 38.3627 114.354C37.8727 113.834 37.6277 113.124 37.6277 112.224C37.6277 111.334 37.8777 110.629 38.3777 110.109C38.8777 109.579 39.5227 109.314 40.3127 109.314C41.1127 109.314 41.7627 109.579 42.2627 110.109C42.7627 110.629 43.0127 111.334 43.0127 112.224C43.0127 113.124 42.7627 113.834 42.2627 114.354C41.7627 114.874 41.1127 115.134 40.3127 115.134ZM40.3127 113.709C40.5827 113.709 40.7977 113.589 40.9577 113.349C41.1177 113.109 41.1977 112.734 41.1977 112.224C41.1977 111.714 41.1177 111.339 40.9577 111.099C40.7977 110.859 40.5827 110.739 40.3127 110.739C40.0427 110.739 39.8277 110.859 39.6677 111.099C39.5077 111.339 39.4277 111.714 39.4277 112.224C39.4277 112.734 39.5077 113.109 39.6677 113.349C39.8277 113.589 40.0427 113.709 40.3127 113.709Z" fill="white"/>
<path d="M63.66 105.804H60.06V104.499H68.745V105.804H65.145V114.999H63.66V105.804ZM77.9987 113.694V114.999H70.3787V104.499H77.7887V105.804H71.8787V109.029H77.1437V110.304H71.8787V113.694H77.9987ZM87.1175 112.374H81.5375L80.3825 114.999H78.8375L83.5925 104.499H85.0775L89.8475 114.999H88.2725L87.1175 112.374ZM86.5925 111.174L84.3275 106.029L82.0625 111.174H86.5925ZM101.149 114.999L101.134 107.349L97.3389 113.724H96.6489L92.8539 107.394V114.999H91.4139V104.499H92.6439L97.0239 111.879L101.344 104.499H102.574L102.589 114.999H101.149Z" fill="white"/>
</g>
<g filter="url(#filter3_i_122_4048)">
<rect width="180" height="40" transform="translate(0 134.999)" fill="#2C40F6"/>
<path d="M24.44 153.324C25.91 153.324 26.995 153.624 27.695 154.224C28.405 154.824 28.76 155.624 28.76 156.624C28.76 157.274 28.59 157.874 28.25 158.424C27.92 158.964 27.41 159.399 26.72 159.729C26.04 160.049 25.195 160.209 24.185 160.209C23.445 160.209 22.71 160.119 21.98 159.939C21.26 159.759 20.64 159.504 20.12 159.174L21.185 156.939C21.605 157.219 22.065 157.434 22.565 157.584C23.075 157.734 23.585 157.809 24.095 157.809C24.605 157.809 25.01 157.714 25.31 157.524C25.62 157.324 25.775 157.049 25.775 156.699C25.775 156.349 25.625 156.084 25.325 155.904C25.025 155.724 24.495 155.634 23.735 155.634H20.885L21.41 149.499H28.1V151.794H23.87L23.735 153.324H24.44ZM31.9798 155.184C31.1898 155.184 30.5448 154.924 30.0448 154.404C29.5448 153.884 29.2948 153.174 29.2948 152.274C29.2948 151.684 29.4098 151.169 29.6398 150.729C29.8698 150.289 30.1848 149.954 30.5848 149.724C30.9948 149.484 31.4598 149.364 31.9798 149.364C32.7798 149.364 33.4298 149.629 33.9298 150.159C34.4298 150.679 34.6798 151.384 34.6798 152.274C34.6798 153.174 34.4298 153.884 33.9298 154.404C33.4298 154.924 32.7798 155.184 31.9798 155.184ZM38.1898 149.499H40.3498L33.1798 159.999H31.0198L38.1898 149.499ZM31.9798 153.759C32.2498 153.759 32.4648 153.639 32.6248 153.399C32.7848 153.159 32.8648 152.784 32.8648 152.274C32.8648 151.764 32.7848 151.389 32.6248 151.149C32.4648 150.909 32.2498 150.789 31.9798 150.789C31.7198 150.789 31.5048 150.914 31.3348 151.164C31.1748 151.404 31.0948 151.774 31.0948 152.274C31.0948 152.774 31.1748 153.149 31.3348 153.399C31.5048 153.639 31.7198 153.759 31.9798 153.759ZM39.3898 160.134C38.5898 160.134 37.9398 159.874 37.4398 159.354C36.9498 158.834 36.7048 158.124 36.7048 157.224C36.7048 156.334 36.9548 155.629 37.4548 155.109C37.9548 154.579 38.5998 154.314 39.3898 154.314C40.1898 154.314 40.8398 154.579 41.3398 155.109C41.8398 155.629 42.0898 156.334 42.0898 157.224C42.0898 158.124 41.8398 158.834 41.3398 159.354C40.8398 159.874 40.1898 160.134 39.3898 160.134ZM39.3898 158.709C39.6598 158.709 39.8748 158.589 40.0348 158.349C40.1948 158.109 40.2748 157.734 40.2748 157.224C40.2748 156.714 40.1948 156.339 40.0348 156.099C39.8748 155.859 39.6598 155.739 39.3898 155.739C39.1198 155.739 38.9048 155.859 38.7448 156.099C38.5848 156.339 38.5048 156.714 38.5048 157.224C38.5048 157.734 38.5848 158.109 38.7448 158.349C38.9048 158.589 39.1198 158.709 39.3898 158.709Z" fill="white"/>
<path d="M64.635 160.119C63.845 160.119 63.08 159.999 62.34 159.759C61.61 159.509 61.035 159.189 60.615 158.799L61.17 157.629C61.57 157.989 62.08 158.284 62.7 158.514C63.33 158.734 63.975 158.844 64.635 158.844C65.505 158.844 66.155 158.699 66.585 158.409C67.015 158.109 67.23 157.714 67.23 157.224C67.23 156.864 67.11 156.574 66.87 156.354C66.64 156.124 66.35 155.949 66 155.829C65.66 155.709 65.175 155.574 64.545 155.424C63.755 155.234 63.115 155.044 62.625 154.854C62.145 154.664 61.73 154.374 61.38 153.984C61.04 153.584 60.87 153.049 60.87 152.379C60.87 151.819 61.015 151.314 61.305 150.864C61.605 150.414 62.055 150.054 62.655 149.784C63.255 149.514 64 149.379 64.89 149.379C65.51 149.379 66.12 149.459 66.72 149.619C67.32 149.779 67.835 150.009 68.265 150.309L67.77 151.509C67.33 151.229 66.86 151.019 66.36 150.879C65.86 150.729 65.37 150.654 64.89 150.654C64.04 150.654 63.4 150.809 62.97 151.119C62.55 151.429 62.34 151.829 62.34 152.319C62.34 152.679 62.46 152.974 62.7 153.204C62.94 153.424 63.235 153.599 63.585 153.729C63.945 153.849 64.43 153.979 65.04 154.119C65.83 154.309 66.465 154.499 66.945 154.689C67.425 154.879 67.835 155.169 68.175 155.559C68.525 155.949 68.7 156.474 68.7 157.134C68.7 157.684 68.55 158.189 68.25 158.649C67.95 159.099 67.495 159.459 66.885 159.729C66.275 159.989 65.525 160.119 64.635 160.119ZM78.5114 158.694V159.999H70.8914V149.499H78.3014V150.804H72.3914V154.029H77.6564V155.304H72.3914V158.694H78.5114ZM88.5602 158.694V159.999H80.9402V149.499H88.3502V150.804H82.4402V154.029H87.7052V155.304H82.4402V158.694H88.5602ZM90.9891 149.499H95.4141C96.5241 149.499 97.5091 149.719 98.3691 150.159C99.2291 150.599 99.8941 151.219 100.364 152.019C100.844 152.809 101.084 153.719 101.084 154.749C101.084 155.779 100.844 156.694 100.364 157.494C99.8941 158.284 99.2291 158.899 98.3691 159.339C97.5091 159.779 96.5241 159.999 95.4141 159.999H90.9891V149.499ZM95.3241 158.694C96.1741 158.694 96.9191 158.529 97.5591 158.199C98.2091 157.869 98.7091 157.409 99.0591 156.819C99.4091 156.219 99.5841 155.529 99.5841 154.749C99.5841 153.969 99.4091 153.284 99.0591 152.694C98.7091 152.094 98.2091 151.629 97.5591 151.299C96.9191 150.969 96.1741 150.804 95.3241 150.804H92.4891V158.694H95.3241ZM110.47 160.119C109.68 160.119 108.915 159.999 108.175 159.759C107.445 159.509 106.87 159.189 106.45 158.799L107.005 157.629C107.405 157.989 107.915 158.284 108.535 158.514C109.165 158.734 109.81 158.844 110.47 158.844C111.34 158.844 111.99 158.699 112.42 158.409C112.85 158.109 113.065 157.714 113.065 157.224C113.065 156.864 112.945 156.574 112.705 156.354C112.475 156.124 112.185 155.949 111.835 155.829C111.495 155.709 111.01 155.574 110.38 155.424C109.59 155.234 108.95 155.044 108.46 154.854C107.98 154.664 107.565 154.374 107.215 153.984C106.875 153.584 106.705 153.049 106.705 152.379C106.705 151.819 106.85 151.314 107.14 150.864C107.44 150.414 107.89 150.054 108.49 149.784C109.09 149.514 109.835 149.379 110.725 149.379C111.345 149.379 111.955 149.459 112.555 149.619C113.155 149.779 113.67 150.009 114.1 150.309L113.605 151.509C113.165 151.229 112.695 151.019 112.195 150.879C111.695 150.729 111.205 150.654 110.725 150.654C109.875 150.654 109.235 150.809 108.805 151.119C108.385 151.429 108.175 151.829 108.175 152.319C108.175 152.679 108.295 152.974 108.535 153.204C108.775 153.424 109.07 153.599 109.42 153.729C109.78 153.849 110.265 153.979 110.875 154.119C111.665 154.309 112.3 154.499 112.78 154.689C113.26 154.879 113.67 155.169 114.01 155.559C114.36 155.949 114.535 156.474 114.535 157.134C114.535 157.684 114.385 158.189 114.085 158.649C113.785 159.099 113.33 159.459 112.72 159.729C112.11 159.989 111.36 160.119 110.47 160.119ZM123.416 157.374H117.836L116.681 159.999H115.136L119.891 149.499H121.376L126.146 159.999H124.571L123.416 157.374ZM122.891 156.174L120.626 151.029L118.361 156.174H122.891ZM127.713 149.499H129.213V158.694H134.898V159.999H127.713V149.499ZM144.239 158.694V159.999H136.619V149.499H144.029V150.804H138.119V154.029H143.384V155.304H138.119V158.694H144.239Z" fill="white"/>
</g>
<g filter="url(#filter4_i_122_4048)">
<rect width="180" height="40" transform="translate(0 179.999)" fill="#25DBBB"/>
<path d="M24.44 198.324C25.91 198.324 26.995 198.624 27.695 199.224C28.405 199.824 28.76 200.624 28.76 201.624C28.76 202.274 28.59 202.874 28.25 203.424C27.92 203.964 27.41 204.399 26.72 204.729C26.04 205.049 25.195 205.209 24.185 205.209C23.445 205.209 22.71 205.119 21.98 204.939C21.26 204.759 20.64 204.504 20.12 204.174L21.185 201.939C21.605 202.219 22.065 202.434 22.565 202.584C23.075 202.734 23.585 202.809 24.095 202.809C24.605 202.809 25.01 202.714 25.31 202.524C25.62 202.324 25.775 202.049 25.775 201.699C25.775 201.349 25.625 201.084 25.325 200.904C25.025 200.724 24.495 200.634 23.735 200.634H20.885L21.41 194.499H28.1V196.794H23.87L23.735 198.324H24.44ZM31.9798 200.184C31.1898 200.184 30.5448 199.924 30.0448 199.404C29.5448 198.884 29.2948 198.174 29.2948 197.274C29.2948 196.684 29.4098 196.169 29.6398 195.729C29.8698 195.289 30.1848 194.954 30.5848 194.724C30.9948 194.484 31.4598 194.364 31.9798 194.364C32.7798 194.364 33.4298 194.629 33.9298 195.159C34.4298 195.679 34.6798 196.384 34.6798 197.274C34.6798 198.174 34.4298 198.884 33.9298 199.404C33.4298 199.924 32.7798 200.184 31.9798 200.184ZM38.1898 194.499H40.3498L33.1798 204.999H31.0198L38.1898 194.499ZM31.9798 198.759C32.2498 198.759 32.4648 198.639 32.6248 198.399C32.7848 198.159 32.8648 197.784 32.8648 197.274C32.8648 196.764 32.7848 196.389 32.6248 196.149C32.4648 195.909 32.2498 195.789 31.9798 195.789C31.7198 195.789 31.5048 195.914 31.3348 196.164C31.1748 196.404 31.0948 196.774 31.0948 197.274C31.0948 197.774 31.1748 198.149 31.3348 198.399C31.5048 198.639 31.7198 198.759 31.9798 198.759ZM39.3898 205.134C38.5898 205.134 37.9398 204.874 37.4398 204.354C36.9498 203.834 36.7048 203.124 36.7048 202.224C36.7048 201.334 36.9548 200.629 37.4548 200.109C37.9548 199.579 38.5998 199.314 39.3898 199.314C40.1898 199.314 40.8398 199.579 41.3398 200.109C41.8398 200.629 42.0898 201.334 42.0898 202.224C42.0898 203.124 41.8398 203.834 41.3398 204.354C40.8398 204.874 40.1898 205.134 39.3898 205.134ZM39.3898 203.709C39.6598 203.709 39.8748 203.589 40.0348 203.349C40.1948 203.109 40.2748 202.734 40.2748 202.224C40.2748 201.714 40.1948 201.339 40.0348 201.099C39.8748 200.859 39.6598 200.739 39.3898 200.739C39.1198 200.739 38.9048 200.859 38.7448 201.099C38.5848 201.339 38.5048 201.714 38.5048 202.224C38.5048 202.734 38.5848 203.109 38.7448 203.349C38.9048 203.589 39.1198 203.709 39.3898 203.709Z" fill="white"/>
<path d="M68.265 202.374H62.685L61.53 204.999H59.985L64.74 194.499H66.225L70.995 204.999H69.42L68.265 202.374ZM67.74 201.174L65.475 196.029L63.21 201.174H67.74ZM72.5613 194.499H76.9863C78.0963 194.499 79.0813 194.719 79.9413 195.159C80.8013 195.599 81.4663 196.219 81.9363 197.019C82.4163 197.809 82.6563 198.719 82.6563 199.749C82.6563 200.779 82.4163 201.694 81.9363 202.494C81.4663 203.284 80.8013 203.899 79.9413 204.339C79.0813 204.779 78.0963 204.999 76.9863 204.999H72.5613V194.499ZM76.8963 203.694C77.7463 203.694 78.4913 203.529 79.1313 203.199C79.7813 202.869 80.2813 202.409 80.6313 201.819C80.9813 201.219 81.1563 200.529 81.1563 199.749C81.1563 198.969 80.9813 198.284 80.6313 197.694C80.2813 197.094 79.7813 196.629 79.1313 196.299C78.4913 195.969 77.7463 195.804 76.8963 195.804H74.0613V203.694H76.8963ZM93.737 194.499L89.132 204.999H87.647L83.027 194.499H84.647L88.427 203.124L92.237 194.499H93.737ZM95.076 194.499H96.576V204.999H95.076V194.499ZM102.78 205.119C101.99 205.119 101.225 204.999 100.485 204.759C99.7545 204.509 99.1795 204.189 98.7595 203.799L99.3145 202.629C99.7145 202.989 100.225 203.284 100.845 203.514C101.475 203.734 102.12 203.844 102.78 203.844C103.65 203.844 104.3 203.699 104.73 203.409C105.16 203.109 105.375 202.714 105.375 202.224C105.375 201.864 105.255 201.574 105.015 201.354C104.785 201.124 104.495 200.949 104.145 200.829C103.805 200.709 103.32 200.574 102.69 200.424C101.9 200.234 101.26 200.044 100.77 199.854C100.29 199.664 99.8745 199.374 99.5245 198.984C99.1845 198.584 99.0145 198.049 99.0145 197.379C99.0145 196.819 99.1595 196.314 99.4495 195.864C99.7495 195.414 100.2 195.054 100.8 194.784C101.4 194.514 102.145 194.379 103.035 194.379C103.655 194.379 104.265 194.459 104.865 194.619C105.465 194.779 105.98 195.009 106.41 195.309L105.915 196.509C105.475 196.229 105.005 196.019 104.505 195.879C104.005 195.729 103.515 195.654 103.035 195.654C102.185 195.654 101.545 195.809 101.115 196.119C100.695 196.429 100.485 196.829 100.485 197.319C100.485 197.679 100.605 197.974 100.845 198.204C101.085 198.424 101.38 198.599 101.73 198.729C102.09 198.849 102.575 198.979 103.185 199.119C103.975 199.309 104.61 199.499 105.09 199.689C105.57 199.879 105.98 200.169 106.32 200.559C106.67 200.949 106.845 201.474 106.845 202.134C106.845 202.684 106.695 203.189 106.395 203.649C106.095 204.099 105.64 204.459 105.03 204.729C104.42 204.989 103.67 205.119 102.78 205.119ZM113.776 205.119C112.716 205.119 111.761 204.889 110.911 204.429C110.061 203.959 109.391 203.314 108.901 202.494C108.421 201.674 108.181 200.759 108.181 199.749C108.181 198.739 108.421 197.824 108.901 197.004C109.391 196.184 110.061 195.544 110.911 195.084C111.761 194.614 112.716 194.379 113.776 194.379C114.826 194.379 115.776 194.614 116.626 195.084C117.476 195.544 118.141 196.184 118.621 197.004C119.101 197.814 119.341 198.729 119.341 199.749C119.341 200.769 119.101 201.689 118.621 202.509C118.141 203.319 117.476 203.959 116.626 204.429C115.776 204.889 114.826 205.119 113.776 205.119ZM113.776 203.784C114.546 203.784 115.236 203.609 115.846 203.259C116.466 202.909 116.951 202.429 117.301 201.819C117.661 201.199 117.841 200.509 117.841 199.749C117.841 198.989 117.661 198.304 117.301 197.694C116.951 197.074 116.466 196.589 115.846 196.239C115.236 195.889 114.546 195.714 113.776 195.714C113.006 195.714 112.306 195.889 111.676 196.239C111.056 196.589 110.566 197.074 110.206 197.694C109.856 198.304 109.681 198.989 109.681 199.749C109.681 200.509 109.856 201.199 110.206 201.819C110.566 202.429 111.056 202.909 111.676 203.259C112.306 203.609 113.006 203.784 113.776 203.784ZM128.654 204.999L126.389 201.774C126.109 201.794 125.889 201.804 125.729 201.804H123.134V204.999H121.634V194.499H125.729C127.089 194.499 128.159 194.824 128.939 195.474C129.719 196.124 130.109 197.019 130.109 198.159C130.109 198.969 129.909 199.659 129.509 200.229C129.109 200.799 128.539 201.214 127.799 201.474L130.289 204.999H128.654ZM125.684 200.529C126.634 200.529 127.359 200.324 127.859 199.914C128.359 199.504 128.609 198.919 128.609 198.159C128.609 197.399 128.359 196.819 127.859 196.419C127.359 196.009 126.634 195.804 125.684 195.804H123.134V200.529H125.684ZM135.592 205.119C134.802 205.119 134.037 204.999 133.297 204.759C132.567 204.509 131.992 204.189 131.572 203.799L132.127 202.629C132.527 202.989 133.037 203.284 133.657 203.514C134.287 203.734 134.932 203.844 135.592 203.844C136.462 203.844 137.112 203.699 137.542 203.409C137.972 203.109 138.187 202.714 138.187 202.224C138.187 201.864 138.067 201.574 137.827 201.354C137.597 201.124 137.307 200.949 136.957 200.829C136.617 200.709 136.132 200.574 135.502 200.424C134.712 200.234 134.072 200.044 133.582 199.854C133.102 199.664 132.687 199.374 132.337 198.984C131.997 198.584 131.827 198.049 131.827 197.379C131.827 196.819 131.972 196.314 132.262 195.864C132.562 195.414 133.012 195.054 133.612 194.784C134.212 194.514 134.957 194.379 135.847 194.379C136.467 194.379 137.077 194.459 137.677 194.619C138.277 194.779 138.792 195.009 139.222 195.309L138.727 196.509C138.287 196.229 137.817 196.019 137.317 195.879C136.817 195.729 136.327 195.654 135.847 195.654C134.997 195.654 134.357 195.809 133.927 196.119C133.507 196.429 133.297 196.829 133.297 197.319C133.297 197.679 133.417 197.974 133.657 198.204C133.897 198.424 134.192 198.599 134.542 198.729C134.902 198.849 135.387 198.979 135.997 199.119C136.787 199.309 137.422 199.499 137.902 199.689C138.382 199.879 138.792 200.169 139.132 200.559C139.482 200.949 139.657 201.474 139.657 202.134C139.657 202.684 139.507 203.189 139.207 203.649C138.907 204.099 138.452 204.459 137.842 204.729C137.232 204.989 136.482 205.119 135.592 205.119Z" fill="white"/>
</g>
<g filter="url(#filter5_i_122_4048)">
<rect width="335" height="40" transform="translate(0 224.999)" fill="#6C03F5"/>
<path d="M25.01 239.499V249.999H22.04V241.794H20.09V239.499H25.01ZM36.4891 247.989H34.9291V249.999H32.0341V247.989H26.4841V246.054L31.1941 239.499H34.2691L29.9941 245.634H32.1241V243.849H34.9291V245.634H36.4891V247.989ZM39.1429 245.184C38.3529 245.184 37.7079 244.924 37.2079 244.404C36.7079 243.884 36.4579 243.174 36.4579 242.274C36.4579 241.684 36.5729 241.169 36.8029 240.729C37.0329 240.289 37.3479 239.954 37.7479 239.724C38.1579 239.484 38.6229 239.364 39.1429 239.364C39.9429 239.364 40.5929 239.629 41.0929 240.159C41.5929 240.679 41.8429 241.384 41.8429 242.274C41.8429 243.174 41.5929 243.884 41.0929 244.404C40.5929 244.924 39.9429 245.184 39.1429 245.184ZM45.3529 239.499H47.5129L40.3429 249.999H38.1829L45.3529 239.499ZM39.1429 243.759C39.4129 243.759 39.6279 243.639 39.7879 243.399C39.9479 243.159 40.0279 242.784 40.0279 242.274C40.0279 241.764 39.9479 241.389 39.7879 241.149C39.6279 240.909 39.4129 240.789 39.1429 240.789C38.8829 240.789 38.6679 240.914 38.4979 241.164C38.3379 241.404 38.2579 241.774 38.2579 242.274C38.2579 242.774 38.3379 243.149 38.4979 243.399C38.6679 243.639 38.8829 243.759 39.1429 243.759ZM46.5529 250.134C45.7529 250.134 45.1029 249.874 44.6029 249.354C44.1129 248.834 43.8679 248.124 43.8679 247.224C43.8679 246.334 44.1179 245.629 44.6179 245.109C45.1179 244.579 45.7629 244.314 46.5529 244.314C47.3529 244.314 48.0029 244.579 48.5029 245.109C49.0029 245.629 49.2529 246.334 49.2529 247.224C49.2529 248.124 49.0029 248.834 48.5029 249.354C48.0029 249.874 47.3529 250.134 46.5529 250.134ZM46.5529 248.709C46.8229 248.709 47.0379 248.589 47.1979 248.349C47.3579 248.109 47.4379 247.734 47.4379 247.224C47.4379 246.714 47.3579 246.339 47.1979 246.099C47.0379 245.859 46.8229 245.739 46.5529 245.739C46.2829 245.739 46.0679 245.859 45.9079 246.099C45.7479 246.339 45.6679 246.714 45.6679 247.224C45.6679 247.734 45.7479 248.109 45.9079 248.349C46.0679 248.589 46.2829 248.709 46.5529 248.709Z" fill="white"/>
<path d="M65.67 239.499C67.03 239.499 68.1 239.824 68.88 240.474C69.66 241.124 70.05 242.019 70.05 243.159C70.05 244.299 69.66 245.194 68.88 245.844C68.1 246.494 67.03 246.819 65.67 246.819H63.075V249.999H61.575V239.499H65.67ZM65.625 245.514C66.575 245.514 67.3 245.314 67.8 244.914C68.3 244.504 68.55 243.919 68.55 243.159C68.55 242.399 68.3 241.819 67.8 241.419C67.3 241.009 66.575 240.804 65.625 240.804H63.075V245.514H65.625ZM79.2737 249.999L77.0087 246.774C76.7287 246.794 76.5087 246.804 76.3487 246.804H73.7537V249.999H72.2537V239.499H76.3487C77.7087 239.499 78.7787 239.824 79.5587 240.474C80.3387 241.124 80.7287 242.019 80.7287 243.159C80.7287 243.969 80.5287 244.659 80.1287 245.229C79.7287 245.799 79.1587 246.214 78.4187 246.474L80.9087 249.999H79.2737ZM76.3037 245.529C77.2537 245.529 77.9787 245.324 78.4787 244.914C78.9787 244.504 79.2287 243.919 79.2287 243.159C79.2287 242.399 78.9787 241.819 78.4787 241.419C77.9787 241.009 77.2537 240.804 76.3037 240.804H73.7537V245.529H76.3037ZM83.1521 239.499H84.6521V249.999H83.1521V239.499ZM96.8132 239.499L92.2082 249.999H90.7232L86.1032 239.499H87.7232L91.5032 248.124L95.3132 239.499H96.8132ZM104.505 247.374H98.9252L97.7702 249.999H96.2252L100.98 239.499H102.465L107.235 249.999H105.66L104.505 247.374ZM103.98 246.174L101.715 241.029L99.4502 246.174H103.98ZM110.359 240.804H106.759V239.499H115.444V240.804H111.844V249.999H110.359V240.804ZM124.698 248.694V249.999H117.078V239.499H124.488V240.804H118.578V244.029H123.843V245.304H118.578V248.694H124.698ZM134.215 250.119C133.425 250.119 132.66 249.999 131.92 249.759C131.19 249.509 130.615 249.189 130.195 248.799L130.75 247.629C131.15 247.989 131.66 248.284 132.28 248.514C132.91 248.734 133.555 248.844 134.215 248.844C135.085 248.844 135.735 248.699 136.165 248.409C136.595 248.109 136.81 247.714 136.81 247.224C136.81 246.864 136.69 246.574 136.45 246.354C136.22 246.124 135.93 245.949 135.58 245.829C135.24 245.709 134.755 245.574 134.125 245.424C133.335 245.234 132.695 245.044 132.205 244.854C131.725 244.664 131.31 244.374 130.96 243.984C130.62 243.584 130.45 243.049 130.45 242.379C130.45 241.819 130.595 241.314 130.885 240.864C131.185 240.414 131.635 240.054 132.235 239.784C132.835 239.514 133.58 239.379 134.47 239.379C135.09 239.379 135.7 239.459 136.3 239.619C136.9 239.779 137.415 240.009 137.845 240.309L137.35 241.509C136.91 241.229 136.44 241.019 135.94 240.879C135.44 240.729 134.95 240.654 134.47 240.654C133.62 240.654 132.98 240.809 132.55 241.119C132.13 241.429 131.92 241.829 131.92 242.319C131.92 242.679 132.04 242.974 132.28 243.204C132.52 243.424 132.815 243.599 133.165 243.729C133.525 243.849 134.01 243.979 134.62 244.119C135.41 244.309 136.045 244.499 136.525 244.689C137.005 244.879 137.415 245.169 137.755 245.559C138.105 245.949 138.28 246.474 138.28 247.134C138.28 247.684 138.13 248.189 137.83 248.649C137.53 249.099 137.075 249.459 136.465 249.729C135.855 249.989 135.105 250.119 134.215 250.119ZM147.161 247.374H141.581L140.426 249.999H138.881L143.636 239.499H145.121L149.891 249.999H148.316L147.161 247.374ZM146.636 246.174L144.371 241.029L142.106 246.174H146.636ZM151.458 239.499H152.958V248.694H158.643V249.999H151.458V239.499ZM167.984 248.694V249.999H160.364V239.499H167.774V240.804H161.864V244.029H167.129V245.304H161.864V248.694H167.984Z" fill="white"/>
</g>
<g filter="url(#filter6_i_122_4048)">
<rect width="320" height="40" transform="translate(0 269.999)" fill="#55E8FD"/>
<path d="M25.01 284.499V294.999H22.04V286.794H20.09V284.499H25.01ZM34.7041 292.644V294.999H26.5291V293.139L30.4591 289.464C30.8391 289.104 31.0941 288.799 31.2241 288.549C31.3541 288.289 31.4191 288.029 31.4191 287.769C31.4191 287.429 31.3041 287.164 31.0741 286.974C30.8441 286.784 30.5091 286.689 30.0691 286.689C29.6791 286.689 29.3191 286.779 28.9891 286.959C28.6691 287.129 28.4041 287.379 28.1941 287.709L25.9891 286.479C26.3991 285.799 26.9741 285.264 27.7141 284.874C28.4541 284.484 29.3291 284.289 30.3391 284.289C31.1391 284.289 31.8441 284.419 32.4541 284.679C33.0741 284.939 33.5541 285.314 33.8941 285.804C34.2441 286.284 34.4191 286.844 34.4191 287.484C34.4191 288.054 34.2941 288.594 34.0441 289.104C33.8041 289.604 33.3341 290.174 32.6341 290.814L30.6541 292.644H34.7041ZM38.2201 290.184C37.4301 290.184 36.7851 289.924 36.2851 289.404C35.7851 288.884 35.5351 288.174 35.5351 287.274C35.5351 286.684 35.6501 286.169 35.8801 285.729C36.1101 285.289 36.4251 284.954 36.8251 284.724C37.2351 284.484 37.7001 284.364 38.2201 284.364C39.0201 284.364 39.6701 284.629 40.1701 285.159C40.6701 285.679 40.9201 286.384 40.9201 287.274C40.9201 288.174 40.6701 288.884 40.1701 289.404C39.6701 289.924 39.0201 290.184 38.2201 290.184ZM44.4301 284.499H46.5901L39.4201 294.999H37.2601L44.4301 284.499ZM38.2201 288.759C38.4901 288.759 38.7051 288.639 38.8651 288.399C39.0251 288.159 39.1051 287.784 39.1051 287.274C39.1051 286.764 39.0251 286.389 38.8651 286.149C38.7051 285.909 38.4901 285.789 38.2201 285.789C37.9601 285.789 37.7451 285.914 37.5751 286.164C37.4151 286.404 37.3351 286.774 37.3351 287.274C37.3351 287.774 37.4151 288.149 37.5751 288.399C37.7451 288.639 37.9601 288.759 38.2201 288.759ZM45.6301 295.134C44.8301 295.134 44.1801 294.874 43.6801 294.354C43.1901 293.834 42.9451 293.124 42.9451 292.224C42.9451 291.334 43.1951 290.629 43.6951 290.109C44.1951 289.579 44.8401 289.314 45.6301 289.314C46.4301 289.314 47.0801 289.579 47.5801 290.109C48.0801 290.629 48.3301 291.334 48.3301 292.224C48.3301 293.124 48.0801 293.834 47.5801 294.354C47.0801 294.874 46.4301 295.134 45.6301 295.134ZM45.6301 293.709C45.9001 293.709 46.1151 293.589 46.2751 293.349C46.4351 293.109 46.5151 292.734 46.5151 292.224C46.5151 291.714 46.4351 291.339 46.2751 291.099C46.1151 290.859 45.9001 290.739 45.6301 290.739C45.3601 290.739 45.1451 290.859 44.9851 291.099C44.8251 291.339 44.7451 291.714 44.7451 292.224C44.7451 292.734 44.8251 293.109 44.9851 293.349C45.1451 293.589 45.3601 293.709 45.6301 293.709Z" fill="white"/>
<path d="M64.635 295.119C63.845 295.119 63.08 294.999 62.34 294.759C61.61 294.509 61.035 294.189 60.615 293.799L61.17 292.629C61.57 292.989 62.08 293.284 62.7 293.514C63.33 293.734 63.975 293.844 64.635 293.844C65.505 293.844 66.155 293.699 66.585 293.409C67.015 293.109 67.23 292.714 67.23 292.224C67.23 291.864 67.11 291.574 66.87 291.354C66.64 291.124 66.35 290.949 66 290.829C65.66 290.709 65.175 290.574 64.545 290.424C63.755 290.234 63.115 290.044 62.625 289.854C62.145 289.664 61.73 289.374 61.38 288.984C61.04 288.584 60.87 288.049 60.87 287.379C60.87 286.819 61.015 286.314 61.305 285.864C61.605 285.414 62.055 285.054 62.655 284.784C63.255 284.514 64 284.379 64.89 284.379C65.51 284.379 66.12 284.459 66.72 284.619C67.32 284.779 67.835 285.009 68.265 285.309L67.77 286.509C67.33 286.229 66.86 286.019 66.36 285.879C65.86 285.729 65.37 285.654 64.89 285.654C64.04 285.654 63.4 285.809 62.97 286.119C62.55 286.429 62.34 286.829 62.34 287.319C62.34 287.679 62.46 287.974 62.7 288.204C62.94 288.424 63.235 288.599 63.585 288.729C63.945 288.849 64.43 288.979 65.04 289.119C65.83 289.309 66.465 289.499 66.945 289.689C67.425 289.879 67.835 290.169 68.175 290.559C68.525 290.949 68.7 291.474 68.7 292.134C68.7 292.684 68.55 293.189 68.25 293.649C67.95 294.099 67.495 294.459 66.885 294.729C66.275 294.989 65.525 295.119 64.635 295.119ZM72.8299 285.804H69.2299V284.499H77.9149V285.804H74.3149V294.999H72.8299V285.804ZM85.7113 292.374H80.1313L78.9763 294.999H77.4313L82.1863 284.499H83.6713L88.4413 294.999H86.8663L85.7113 292.374ZM85.1863 291.174L82.9213 286.029L80.6563 291.174H85.1863ZM93.4276 290.334L91.5076 292.284V294.999H90.0076V284.499H91.5076V290.364L97.2076 284.499H98.9176L94.4326 289.224L99.2026 294.999H97.4476L93.4276 290.334ZM100.789 284.499H102.289V294.999H100.789V284.499ZM114.462 284.499V294.999H113.232L106.932 287.169V294.999H105.432V284.499H106.662L112.962 292.329V284.499H114.462ZM124.88 289.689H126.32V293.784C125.8 294.214 125.195 294.544 124.505 294.774C123.815 295.004 123.095 295.119 122.345 295.119C121.285 295.119 120.33 294.889 119.48 294.429C118.63 293.959 117.96 293.319 117.47 292.509C116.99 291.689 116.75 290.769 116.75 289.749C116.75 288.729 116.99 287.809 117.47 286.989C117.96 286.169 118.63 285.529 119.48 285.069C120.34 284.609 121.305 284.379 122.375 284.379C123.215 284.379 123.975 284.519 124.655 284.799C125.345 285.069 125.93 285.469 126.41 285.999L125.48 286.929C124.64 286.119 123.625 285.714 122.435 285.714C121.635 285.714 120.915 285.889 120.275 286.239C119.645 286.579 119.15 287.059 118.79 287.679C118.43 288.289 118.25 288.979 118.25 289.749C118.25 290.509 118.43 291.199 118.79 291.819C119.15 292.429 119.645 292.909 120.275 293.259C120.915 293.609 121.63 293.784 122.42 293.784C123.36 293.784 124.18 293.559 124.88 293.109V289.689ZM140.241 294.999L137.976 291.774C137.696 291.794 137.476 291.804 137.316 291.804H134.721V294.999H133.221V284.499H137.316C138.676 284.499 139.746 284.824 140.526 285.474C141.306 286.124 141.696 287.019 141.696 288.159C141.696 288.969 141.496 289.659 141.096 290.229C140.696 290.799 140.126 291.214 139.386 291.474L141.876 294.999H140.241ZM137.271 290.529C138.221 290.529 138.946 290.324 139.446 289.914C139.946 289.504 140.196 288.919 140.196 288.159C140.196 287.399 139.946 286.819 139.446 286.419C138.946 286.009 138.221 285.804 137.271 285.804H134.721V290.529H137.271ZM151.739 293.694V294.999H144.119V284.499H151.529V285.804H145.619V289.029H150.884V290.304H145.619V293.694H151.739ZM168.856 284.499L165.346 294.999H163.771L160.906 286.614L158.041 294.999H156.436L152.926 284.499H154.471L157.306 293.034L160.261 284.499H161.641L164.536 293.079L167.431 284.499H168.856ZM177.044 292.374H171.464L170.309 294.999H168.764L173.519 284.499H175.004L179.774 294.999H178.199L177.044 292.374ZM176.519 291.174L174.254 286.029L171.989 291.174H176.519ZM188.361 294.999L186.096 291.774C185.816 291.794 185.596 291.804 185.436 291.804H182.841V294.999H181.341V284.499H185.436C186.796 284.499 187.866 284.824 188.646 285.474C189.426 286.124 189.816 287.019 189.816 288.159C189.816 288.969 189.616 289.659 189.216 290.229C188.816 290.799 188.246 291.214 187.506 291.474L189.996 294.999H188.361ZM185.391 290.529C186.341 290.529 187.066 290.324 187.566 289.914C188.066 289.504 188.316 288.919 188.316 288.159C188.316 287.399 188.066 286.819 187.566 286.419C187.066 286.009 186.341 285.804 185.391 285.804H182.841V290.529H185.391ZM192.239 284.499H196.664C197.774 284.499 198.759 284.719 199.619 285.159C200.479 285.599 201.144 286.219 201.614 287.019C202.094 287.809 202.334 288.719 202.334 289.749C202.334 290.779 202.094 291.694 201.614 292.494C201.144 293.284 200.479 293.899 199.619 294.339C198.759 294.779 197.774 294.999 196.664 294.999H192.239V284.499ZM196.574 293.694C197.424 293.694 198.169 293.529 198.809 293.199C199.459 292.869 199.959 292.409 200.309 291.819C200.659 291.219 200.834 290.529 200.834 289.749C200.834 288.969 200.659 288.284 200.309 287.694C199.959 287.094 199.459 286.629 198.809 286.299C198.169 285.969 197.424 285.804 196.574 285.804H193.739V293.694H196.574ZM207.692 295.119C206.902 295.119 206.137 294.999 205.397 294.759C204.667 294.509 204.092 294.189 203.672 293.799L204.227 292.629C204.627 292.989 205.137 293.284 205.757 293.514C206.387 293.734 207.032 293.844 207.692 293.844C208.562 293.844 209.212 293.699 209.642 293.409C210.072 293.109 210.287 292.714 210.287 292.224C210.287 291.864 210.167 291.574 209.927 291.354C209.697 291.124 209.407 290.949 209.057 290.829C208.717 290.709 208.232 290.574 207.602 290.424C206.812 290.234 206.172 290.044 205.682 289.854C205.202 289.664 204.787 289.374 204.437 288.984C204.097 288.584 203.927 288.049 203.927 287.379C203.927 286.819 204.072 286.314 204.362 285.864C204.662 285.414 205.112 285.054 205.712 284.784C206.312 284.514 207.057 284.379 207.947 284.379C208.567 284.379 209.177 284.459 209.777 284.619C210.377 284.779 210.892 285.009 211.322 285.309L210.827 286.509C210.387 286.229 209.917 286.019 209.417 285.879C208.917 285.729 208.427 285.654 207.947 285.654C207.097 285.654 206.457 285.809 206.027 286.119C205.607 286.429 205.397 286.829 205.397 287.319C205.397 287.679 205.517 287.974 205.757 288.204C205.997 288.424 206.292 288.599 206.642 288.729C207.002 288.849 207.487 288.979 208.097 289.119C208.887 289.309 209.522 289.499 210.002 289.689C210.482 289.879 210.892 290.169 211.232 290.559C211.582 290.949 211.757 291.474 211.757 292.134C211.757 292.684 211.607 293.189 211.307 293.649C211.007 294.099 210.552 294.459 209.942 294.729C209.332 294.989 208.582 295.119 207.692 295.119Z" fill="white"/>
</g>
<g filter="url(#filter7_i_122_4048)">
<rect width="300" height="40" transform="translate(0 314.999)" fill="#AF24F0"/>
<path d="M25.01 329.499V339.999H22.04V331.794H20.09V329.499H25.01ZM31.2241 340.209C30.3241 340.209 29.5241 339.994 28.8241 339.564C28.1241 339.134 27.5741 338.509 27.1741 337.689C26.7841 336.859 26.5891 335.879 26.5891 334.749C26.5891 333.619 26.7841 332.644 27.1741 331.824C27.5741 330.994 28.1241 330.364 28.8241 329.934C29.5241 329.504 30.3241 329.289 31.2241 329.289C32.1141 329.289 32.9091 329.504 33.6091 329.934C34.3091 330.364 34.8541 330.994 35.2441 331.824C35.6441 332.644 35.8441 333.619 35.8441 334.749C35.8441 335.879 35.6441 336.859 35.2441 337.689C34.8541 338.509 34.3091 339.134 33.6091 339.564C32.9091 339.994 32.1141 340.209 31.2241 340.209ZM31.2241 337.779C31.7241 337.779 32.1191 337.539 32.4091 337.059C32.7091 336.569 32.8591 335.799 32.8591 334.749C32.8591 333.699 32.7091 332.934 32.4091 332.454C32.1191 331.964 31.7241 331.719 31.2241 331.719C30.7141 331.719 30.3091 331.964 30.0091 332.454C29.7191 332.934 29.5741 333.699 29.5741 334.749C29.5741 335.799 29.7191 336.569 30.0091 337.059C30.3091 337.539 30.7141 337.779 31.2241 337.779ZM39.3627 335.184C38.5727 335.184 37.9277 334.924 37.4277 334.404C36.9277 333.884 36.6777 333.174 36.6777 332.274C36.6777 331.684 36.7927 331.169 37.0227 330.729C37.2527 330.289 37.5677 329.954 37.9677 329.724C38.3777 329.484 38.8427 329.364 39.3627 329.364C40.1627 329.364 40.8127 329.629 41.3127 330.159C41.8127 330.679 42.0627 331.384 42.0627 332.274C42.0627 333.174 41.8127 333.884 41.3127 334.404C40.8127 334.924 40.1627 335.184 39.3627 335.184ZM45.5727 329.499H47.7327L40.5627 339.999H38.4027L45.5727 329.499ZM39.3627 333.759C39.6327 333.759 39.8477 333.639 40.0077 333.399C40.1677 333.159 40.2477 332.784 40.2477 332.274C40.2477 331.764 40.1677 331.389 40.0077 331.149C39.8477 330.909 39.6327 330.789 39.3627 330.789C39.1027 330.789 38.8877 330.914 38.7177 331.164C38.5577 331.404 38.4777 331.774 38.4777 332.274C38.4777 332.774 38.5577 333.149 38.7177 333.399C38.8877 333.639 39.1027 333.759 39.3627 333.759ZM46.7727 340.134C45.9727 340.134 45.3227 339.874 44.8227 339.354C44.3327 338.834 44.0877 338.124 44.0877 337.224C44.0877 336.334 44.3377 335.629 44.8377 335.109C45.3377 334.579 45.9827 334.314 46.7727 334.314C47.5727 334.314 48.2227 334.579 48.7227 335.109C49.2227 335.629 49.4727 336.334 49.4727 337.224C49.4727 338.124 49.2227 338.834 48.7227 339.354C48.2227 339.874 47.5727 340.134 46.7727 340.134ZM46.7727 338.709C47.0427 338.709 47.2577 338.589 47.4177 338.349C47.5777 338.109 47.6577 337.734 47.6577 337.224C47.6577 336.714 47.5777 336.339 47.4177 336.099C47.2577 335.859 47.0427 335.739 46.7727 335.739C46.5027 335.739 46.2877 335.859 46.1277 336.099C45.9677 336.339 45.8877 336.714 45.8877 337.224C45.8877 337.734 45.9677 338.109 46.1277 338.349C46.2877 338.589 46.5027 338.709 46.7727 338.709Z" fill="white"/>
<path d="M65.67 329.499C67.03 329.499 68.1 329.824 68.88 330.474C69.66 331.124 70.05 332.019 70.05 333.159C70.05 334.299 69.66 335.194 68.88 335.844C68.1 336.494 67.03 336.819 65.67 336.819H63.075V339.999H61.575V329.499H65.67ZM65.625 335.514C66.575 335.514 67.3 335.314 67.8 334.914C68.3 334.504 68.55 333.919 68.55 333.159C68.55 332.399 68.3 331.819 67.8 331.419C67.3 331.009 66.575 330.804 65.625 330.804H63.075V335.514H65.625ZM76.633 340.119C75.233 340.119 74.143 339.719 73.363 338.919C72.583 338.119 72.193 336.969 72.193 335.469V329.499H73.693V335.409C73.693 337.659 74.678 338.784 76.648 338.784C77.608 338.784 78.343 338.509 78.853 337.959C79.363 337.399 79.618 336.549 79.618 335.409V329.499H81.073V335.469C81.073 336.979 80.683 338.134 79.903 338.934C79.123 339.724 78.033 340.119 76.633 340.119ZM91.2132 334.554C91.8232 334.724 92.3032 335.034 92.6532 335.484C93.0032 335.924 93.1782 336.484 93.1782 337.164C93.1782 338.074 92.8332 338.774 92.1432 339.264C91.4632 339.754 90.4682 339.999 89.1582 339.999H84.1482V329.499H88.8582C90.0582 329.499 90.9832 329.739 91.6332 330.219C92.2932 330.699 92.6232 331.364 92.6232 332.214C92.6232 332.764 92.4932 333.239 92.2332 333.639C91.9832 334.039 91.6432 334.344 91.2132 334.554ZM85.6482 330.714V334.074H88.7232C89.4932 334.074 90.0832 333.934 90.4932 333.654C90.9132 333.364 91.1232 332.944 91.1232 332.394C91.1232 331.844 90.9132 331.429 90.4932 331.149C90.0832 330.859 89.4932 330.714 88.7232 330.714H85.6482ZM89.0982 338.784C89.9482 338.784 90.5882 338.644 91.0182 338.364C91.4482 338.084 91.6632 337.644 91.6632 337.044C91.6632 335.874 90.8082 335.289 89.0982 335.289H85.6482V338.784H89.0982ZM95.5008 329.499H97.0008V338.694H102.686V339.999H95.5008V329.499ZM104.407 329.499H105.907V339.999H104.407V329.499ZM113.746 340.119C112.696 340.119 111.746 339.889 110.896 339.429C110.056 338.959 109.396 338.319 108.916 337.509C108.436 336.689 108.196 335.769 108.196 334.749C108.196 333.729 108.436 332.814 108.916 332.004C109.396 331.184 110.061 330.544 110.911 330.084C111.761 329.614 112.711 329.379 113.761 329.379C114.581 329.379 115.331 329.519 116.011 329.799C116.691 330.069 117.271 330.474 117.751 331.014L116.776 331.959C115.986 331.129 115.001 330.714 113.821 330.714C113.041 330.714 112.336 330.889 111.706 331.239C111.076 331.589 110.581 332.074 110.221 332.694C109.871 333.304 109.696 333.989 109.696 334.749C109.696 335.509 109.871 336.199 110.221 336.819C110.581 337.429 111.076 337.909 111.706 338.259C112.336 338.609 113.041 338.784 113.821 338.784C114.991 338.784 115.976 338.364 116.776 337.524L117.751 338.469C117.271 339.009 116.686 339.419 115.996 339.699C115.316 339.979 114.566 340.119 113.746 340.119ZM126.979 340.119C126.189 340.119 125.424 339.999 124.684 339.759C123.954 339.509 123.379 339.189 122.959 338.799L123.514 337.629C123.914 337.989 124.424 338.284 125.044 338.514C125.674 338.734 126.319 338.844 126.979 338.844C127.849 338.844 128.499 338.699 128.929 338.409C129.359 338.109 129.574 337.714 129.574 337.224C129.574 336.864 129.454 336.574 129.214 336.354C128.984 336.124 128.694 335.949 128.344 335.829C128.004 335.709 127.519 335.574 126.889 335.424C126.099 335.234 125.459 335.044 124.969 334.854C124.489 334.664 124.074 334.374 123.724 333.984C123.384 333.584 123.214 333.049 123.214 332.379C123.214 331.819 123.359 331.314 123.649 330.864C123.949 330.414 124.399 330.054 124.999 329.784C125.599 329.514 126.344 329.379 127.234 329.379C127.854 329.379 128.464 329.459 129.064 329.619C129.664 329.779 130.179 330.009 130.609 330.309L130.114 331.509C129.674 331.229 129.204 331.019 128.704 330.879C128.204 330.729 127.714 330.654 127.234 330.654C126.384 330.654 125.744 330.809 125.314 331.119C124.894 331.429 124.684 331.829 124.684 332.319C124.684 332.679 124.804 332.974 125.044 333.204C125.284 333.424 125.579 333.599 125.929 333.729C126.289 333.849 126.774 333.979 127.384 334.119C128.174 334.309 128.809 334.499 129.289 334.689C129.769 334.879 130.179 335.169 130.519 335.559C130.869 335.949 131.044 336.474 131.044 337.134C131.044 337.684 130.894 338.189 130.594 338.649C130.294 339.099 129.839 339.459 129.229 339.729C128.619 339.989 127.869 340.119 126.979 340.119ZM139.925 337.374H134.345L133.19 339.999H131.645L136.4 329.499H137.885L142.655 339.999H141.08L139.925 337.374ZM139.4 336.174L137.135 331.029L134.87 336.174H139.4ZM144.221 329.499H145.721V338.694H151.406V339.999H144.221V329.499ZM160.748 338.694V339.999H153.128V329.499H160.538V330.804H154.628V334.029H159.893V335.304H154.628V338.694H160.748Z" fill="white"/>
</g>
<g filter="url(#filter8_i_122_4048)">
<rect width="300" height="40" transform="translate(0 359.999)" fill="#3C2BFA"/>
<path d="M25.01 374.499V384.999H22.04V376.794H20.09V374.499H25.01ZM31.2241 385.209C30.3241 385.209 29.5241 384.994 28.8241 384.564C28.1241 384.134 27.5741 383.509 27.1741 382.689C26.7841 381.859 26.5891 380.879 26.5891 379.749C26.5891 378.619 26.7841 377.644 27.1741 376.824C27.5741 375.994 28.1241 375.364 28.8241 374.934C29.5241 374.504 30.3241 374.289 31.2241 374.289C32.1141 374.289 32.9091 374.504 33.6091 374.934C34.3091 375.364 34.8541 375.994 35.2441 376.824C35.6441 377.644 35.8441 378.619 35.8441 379.749C35.8441 380.879 35.6441 381.859 35.2441 382.689C34.8541 383.509 34.3091 384.134 33.6091 384.564C32.9091 384.994 32.1141 385.209 31.2241 385.209ZM31.2241 382.779C31.7241 382.779 32.1191 382.539 32.4091 382.059C32.7091 381.569 32.8591 380.799 32.8591 379.749C32.8591 378.699 32.7091 377.934 32.4091 377.454C32.1191 376.964 31.7241 376.719 31.2241 376.719C30.7141 376.719 30.3091 376.964 30.0091 377.454C29.7191 377.934 29.5741 378.699 29.5741 379.749C29.5741 380.799 29.7191 381.569 30.0091 382.059C30.3091 382.539 30.7141 382.779 31.2241 382.779ZM39.3627 380.184C38.5727 380.184 37.9277 379.924 37.4277 379.404C36.9277 378.884 36.6777 378.174 36.6777 377.274C36.6777 376.684 36.7927 376.169 37.0227 375.729C37.2527 375.289 37.5677 374.954 37.9677 374.724C38.3777 374.484 38.8427 374.364 39.3627 374.364C40.1627 374.364 40.8127 374.629 41.3127 375.159C41.8127 375.679 42.0627 376.384 42.0627 377.274C42.0627 378.174 41.8127 378.884 41.3127 379.404C40.8127 379.924 40.1627 380.184 39.3627 380.184ZM45.5727 374.499H47.7327L40.5627 384.999H38.4027L45.5727 374.499ZM39.3627 378.759C39.6327 378.759 39.8477 378.639 40.0077 378.399C40.1677 378.159 40.2477 377.784 40.2477 377.274C40.2477 376.764 40.1677 376.389 40.0077 376.149C39.8477 375.909 39.6327 375.789 39.3627 375.789C39.1027 375.789 38.8877 375.914 38.7177 376.164C38.5577 376.404 38.4777 376.774 38.4777 377.274C38.4777 377.774 38.5577 378.149 38.7177 378.399C38.8877 378.639 39.1027 378.759 39.3627 378.759ZM46.7727 385.134C45.9727 385.134 45.3227 384.874 44.8227 384.354C44.3327 383.834 44.0877 383.124 44.0877 382.224C44.0877 381.334 44.3377 380.629 44.8377 380.109C45.3377 379.579 45.9827 379.314 46.7727 379.314C47.5727 379.314 48.2227 379.579 48.7227 380.109C49.2227 380.629 49.4727 381.334 49.4727 382.224C49.4727 383.124 49.2227 383.834 48.7227 384.354C48.2227 384.874 47.5727 385.134 46.7727 385.134ZM46.7727 383.709C47.0427 383.709 47.2577 383.589 47.4177 383.349C47.5777 383.109 47.6577 382.734 47.6577 382.224C47.6577 381.714 47.5777 381.339 47.4177 381.099C47.2577 380.859 47.0427 380.739 46.7727 380.739C46.5027 380.739 46.2877 380.859 46.1277 381.099C45.9677 381.339 45.8877 381.714 45.8877 382.224C45.8877 382.734 45.9677 383.109 46.1277 383.349C46.2877 383.589 46.5027 383.709 46.7727 383.709Z" fill="white"/>
<path d="M71.31 384.999L71.295 377.349L67.5 383.724H66.81L63.015 377.394V384.999H61.575V374.499H62.805L67.185 381.879L71.505 374.499H72.735L72.75 384.999H71.31ZM82.5912 382.374H77.0112L75.8562 384.999H74.3112L79.0662 374.499H80.5512L85.3212 384.999H83.7462L82.5912 382.374ZM82.0662 381.174L79.8012 376.029L77.5362 381.174H82.0662ZM93.9075 384.999L91.6425 381.774C91.3625 381.794 91.1425 381.804 90.9825 381.804H88.3875V384.999H86.8875V374.499H90.9825C92.3425 374.499 93.4125 374.824 94.1925 375.474C94.9725 376.124 95.3625 377.019 95.3625 378.159C95.3625 378.969 95.1625 379.659 94.7625 380.229C94.3625 380.799 93.7925 381.214 93.0525 381.474L95.5425 384.999H93.9075ZM90.9375 380.529C91.8875 380.529 92.6125 380.324 93.1125 379.914C93.6125 379.504 93.8625 378.919 93.8625 378.159C93.8625 377.399 93.6125 376.819 93.1125 376.419C92.6125 376.009 91.8875 375.804 90.9375 375.804H88.3875V380.529H90.9375ZM101.206 380.334L99.2859 382.284V384.999H97.7859V374.499H99.2859V380.364L104.986 374.499H106.696L102.211 379.224L106.981 384.999H105.226L101.206 380.334ZM116.187 383.694V384.999H108.567V374.499H115.977V375.804H110.067V379.029H115.332V380.304H110.067V383.694H116.187ZM120.701 375.804H117.101V374.499H125.786V375.804H122.186V384.999H120.701V375.804ZM127.42 374.499H128.92V384.999H127.42V374.499ZM141.093 374.499V384.999H139.863L133.563 377.169V384.999H132.063V374.499H133.293L139.593 382.329V374.499H141.093ZM151.511 379.689H152.951V383.784C152.431 384.214 151.826 384.544 151.136 384.774C150.446 385.004 149.726 385.119 148.976 385.119C147.916 385.119 146.961 384.889 146.111 384.429C145.261 383.959 144.591 383.319 144.101 382.509C143.621 381.689 143.381 380.769 143.381 379.749C143.381 378.729 143.621 377.809 144.101 376.989C144.591 376.169 145.261 375.529 146.111 375.069C146.971 374.609 147.936 374.379 149.006 374.379C149.846 374.379 150.606 374.519 151.286 374.799C151.976 375.069 152.561 375.469 153.041 375.999L152.111 376.929C151.271 376.119 150.256 375.714 149.066 375.714C148.266 375.714 147.546 375.889 146.906 376.239C146.276 376.579 145.781 377.059 145.421 377.679C145.061 378.289 144.881 378.979 144.881 379.749C144.881 380.509 145.061 381.199 145.421 381.819C145.781 382.429 146.276 382.909 146.906 383.259C147.546 383.609 148.261 383.784 149.051 383.784C149.991 383.784 150.811 383.559 151.511 383.109V379.689Z" fill="white"/>
</g>
<g filter="url(#filter9_i_122_4048)">
<rect width="300" height="40" transform="translate(0 404.999)" fill="#497BFC"/>
<path d="M25.01 419.499V429.999H22.04V421.794H20.09V419.499H25.01ZM31.2241 430.209C30.3241 430.209 29.5241 429.994 28.8241 429.564C28.1241 429.134 27.5741 428.509 27.1741 427.689C26.7841 426.859 26.5891 425.879 26.5891 424.749C26.5891 423.619 26.7841 422.644 27.1741 421.824C27.5741 420.994 28.1241 420.364 28.8241 419.934C29.5241 419.504 30.3241 419.289 31.2241 419.289C32.1141 419.289 32.9091 419.504 33.6091 419.934C34.3091 420.364 34.8541 420.994 35.2441 421.824C35.6441 422.644 35.8441 423.619 35.8441 424.749C35.8441 425.879 35.6441 426.859 35.2441 427.689C34.8541 428.509 34.3091 429.134 33.6091 429.564C32.9091 429.994 32.1141 430.209 31.2241 430.209ZM31.2241 427.779C31.7241 427.779 32.1191 427.539 32.4091 427.059C32.7091 426.569 32.8591 425.799 32.8591 424.749C32.8591 423.699 32.7091 422.934 32.4091 422.454C32.1191 421.964 31.7241 421.719 31.2241 421.719C30.7141 421.719 30.3091 421.964 30.0091 422.454C29.7191 422.934 29.5741 423.699 29.5741 424.749C29.5741 425.799 29.7191 426.569 30.0091 427.059C30.3091 427.539 30.7141 427.779 31.2241 427.779ZM39.3627 425.184C38.5727 425.184 37.9277 424.924 37.4277 424.404C36.9277 423.884 36.6777 423.174 36.6777 422.274C36.6777 421.684 36.7927 421.169 37.0227 420.729C37.2527 420.289 37.5677 419.954 37.9677 419.724C38.3777 419.484 38.8427 419.364 39.3627 419.364C40.1627 419.364 40.8127 419.629 41.3127 420.159C41.8127 420.679 42.0627 421.384 42.0627 422.274C42.0627 423.174 41.8127 423.884 41.3127 424.404C40.8127 424.924 40.1627 425.184 39.3627 425.184ZM45.5727 419.499H47.7327L40.5627 429.999H38.4027L45.5727 419.499ZM39.3627 423.759C39.6327 423.759 39.8477 423.639 40.0077 423.399C40.1677 423.159 40.2477 422.784 40.2477 422.274C40.2477 421.764 40.1677 421.389 40.0077 421.149C39.8477 420.909 39.6327 420.789 39.3627 420.789C39.1027 420.789 38.8877 420.914 38.7177 421.164C38.5577 421.404 38.4777 421.774 38.4777 422.274C38.4777 422.774 38.5577 423.149 38.7177 423.399C38.8877 423.639 39.1027 423.759 39.3627 423.759ZM46.7727 430.134C45.9727 430.134 45.3227 429.874 44.8227 429.354C44.3327 428.834 44.0877 428.124 44.0877 427.224C44.0877 426.334 44.3377 425.629 44.8377 425.109C45.3377 424.579 45.9827 424.314 46.7727 424.314C47.5727 424.314 48.2227 424.579 48.7227 425.109C49.2227 425.629 49.4727 426.334 49.4727 427.224C49.4727 428.124 49.2227 428.834 48.7227 429.354C48.2227 429.874 47.5727 430.134 46.7727 430.134ZM46.7727 428.709C47.0427 428.709 47.2577 428.589 47.4177 428.349C47.5777 428.109 47.6577 427.734 47.6577 427.224C47.6577 426.714 47.5777 426.339 47.4177 426.099C47.2577 425.859 47.0427 425.739 46.7727 425.739C46.5027 425.739 46.2877 425.859 46.1277 426.099C45.9677 426.339 45.8877 426.714 45.8877 427.224C45.8877 427.734 45.9677 428.109 46.1277 428.349C46.2877 428.589 46.5027 428.709 46.7727 428.709Z" fill="white"/>
<path d="M61.575 419.499H66C67.11 419.499 68.095 419.719 68.955 420.159C69.815 420.599 70.48 421.219 70.95 422.019C71.43 422.809 71.67 423.719 71.67 424.749C71.67 425.779 71.43 426.694 70.95 427.494C70.48 428.284 69.815 428.899 68.955 429.339C68.095 429.779 67.11 429.999 66 429.999H61.575V419.499ZM65.91 428.694C66.76 428.694 67.505 428.529 68.145 428.199C68.795 427.869 69.295 427.409 69.645 426.819C69.995 426.219 70.17 425.529 70.17 424.749C70.17 423.969 69.995 423.284 69.645 422.694C69.295 422.094 68.795 421.629 68.145 421.299C67.505 420.969 66.76 420.804 65.91 420.804H63.075V428.694H65.91ZM81.5876 428.694V429.999H73.9676V419.499H81.3776V420.804H75.4676V424.029H80.7326V425.304H75.4676V428.694H81.5876ZM92.9899 419.499L88.3849 429.999H86.8999L82.2799 419.499H83.8999L87.6799 428.124L91.4899 419.499H92.9899ZM101.949 428.694V429.999H94.3289V419.499H101.739V420.804H95.8289V424.029H101.094V425.304H95.8289V428.694H101.949ZM104.378 419.499H105.878V428.694H111.563V429.999H104.378V419.499ZM117.834 430.119C116.774 430.119 115.819 429.889 114.969 429.429C114.119 428.959 113.449 428.314 112.959 427.494C112.479 426.674 112.239 425.759 112.239 424.749C112.239 423.739 112.479 422.824 112.959 422.004C113.449 421.184 114.119 420.544 114.969 420.084C115.819 419.614 116.774 419.379 117.834 419.379C118.884 419.379 119.834 419.614 120.684 420.084C121.534 420.544 122.199 421.184 122.679 422.004C123.159 422.814 123.399 423.729 123.399 424.749C123.399 425.769 123.159 426.689 122.679 427.509C122.199 428.319 121.534 428.959 120.684 429.429C119.834 429.889 118.884 430.119 117.834 430.119ZM117.834 428.784C118.604 428.784 119.294 428.609 119.904 428.259C120.524 427.909 121.009 427.429 121.359 426.819C121.719 426.199 121.899 425.509 121.899 424.749C121.899 423.989 121.719 423.304 121.359 422.694C121.009 422.074 120.524 421.589 119.904 421.239C119.294 420.889 118.604 420.714 117.834 420.714C117.064 420.714 116.364 420.889 115.734 421.239C115.114 421.589 114.624 422.074 114.264 422.694C113.914 423.304 113.739 423.989 113.739 424.749C113.739 425.509 113.914 426.199 114.264 426.819C114.624 427.429 115.114 427.909 115.734 428.259C116.364 428.609 117.064 428.784 117.834 428.784ZM129.786 419.499C131.146 419.499 132.216 419.824 132.996 420.474C133.776 421.124 134.166 422.019 134.166 423.159C134.166 424.299 133.776 425.194 132.996 425.844C132.216 426.494 131.146 426.819 129.786 426.819H127.191V429.999H125.691V419.499H129.786ZM129.741 425.514C130.691 425.514 131.416 425.314 131.916 424.914C132.416 424.504 132.666 423.919 132.666 423.159C132.666 422.399 132.416 421.819 131.916 421.419C131.416 421.009 130.691 420.804 129.741 420.804H127.191V425.514H129.741ZM146.105 429.999L146.09 422.349L142.295 428.724H141.605L137.81 422.394V429.999H136.37V419.499H137.6L141.98 426.879L146.3 419.499H147.53L147.545 429.999H146.105ZM158.316 428.694V429.999H150.696V419.499H158.106V420.804H152.196V424.029H157.461V425.304H152.196V428.694H158.316ZM169.775 419.499V429.999H168.545L162.245 422.169V429.999H160.745V419.499H161.975L168.275 427.329V419.499H169.775ZM175.003 420.804H171.403V419.499H180.088V420.804H176.488V429.999H175.003V420.804Z" fill="white"/>
</g>
<g filter="url(#filter10_i_122_4048)">
<rect width="246" height="40" transform="translate(0 449.999)" fill="#26EFCC"/>
<path d="M28.07 469.464C28.55 469.744 28.92 470.089 29.18 470.499C29.44 470.909 29.57 471.379 29.57 471.909C29.57 472.569 29.38 473.149 29 473.649C28.62 474.149 28.085 474.534 27.395 474.804C26.705 475.074 25.91 475.209 25.01 475.209C24.11 475.209 23.315 475.074 22.625 474.804C21.935 474.534 21.4 474.149 21.02 473.649C20.64 473.149 20.45 472.569 20.45 471.909C20.45 471.379 20.58 470.909 20.84 470.499C21.1 470.089 21.47 469.744 21.95 469.464C21.59 469.214 21.31 468.909 21.11 468.549C20.92 468.189 20.825 467.789 20.825 467.349C20.825 466.739 21 466.204 21.35 465.744C21.7 465.274 22.19 464.914 22.82 464.664C23.46 464.414 24.19 464.289 25.01 464.289C25.83 464.289 26.555 464.414 27.185 464.664C27.825 464.914 28.32 465.274 28.67 465.744C29.02 466.204 29.195 466.739 29.195 467.349C29.195 467.789 29.095 468.189 28.895 468.549C28.705 468.909 28.43 469.214 28.07 469.464ZM25.01 466.374C24.64 466.374 24.34 466.474 24.11 466.674C23.88 466.864 23.765 467.134 23.765 467.484C23.765 467.824 23.875 468.094 24.095 468.294C24.325 468.484 24.63 468.579 25.01 468.579C25.39 468.579 25.695 468.484 25.925 468.294C26.155 468.094 26.27 467.824 26.27 467.484C26.27 467.134 26.155 466.864 25.925 466.674C25.695 466.474 25.39 466.374 25.01 466.374ZM25.01 473.124C25.49 473.124 25.87 473.009 26.15 472.779C26.44 472.539 26.585 472.219 26.585 471.819C26.585 471.419 26.44 471.104 26.15 470.874C25.87 470.634 25.49 470.514 25.01 470.514C24.53 470.514 24.145 470.634 23.855 470.874C23.575 471.104 23.435 471.419 23.435 471.819C23.435 472.219 23.575 472.539 23.855 472.779C24.145 473.009 24.53 473.124 25.01 473.124ZM32.9027 470.184C32.1127 470.184 31.4677 469.924 30.9677 469.404C30.4677 468.884 30.2177 468.174 30.2177 467.274C30.2177 466.684 30.3327 466.169 30.5627 465.729C30.7927 465.289 31.1077 464.954 31.5077 464.724C31.9177 464.484 32.3827 464.364 32.9027 464.364C33.7027 464.364 34.3527 464.629 34.8527 465.159C35.3527 465.679 35.6027 466.384 35.6027 467.274C35.6027 468.174 35.3527 468.884 34.8527 469.404C34.3527 469.924 33.7027 470.184 32.9027 470.184ZM39.1127 464.499H41.2727L34.1027 474.999H31.9427L39.1127 464.499ZM32.9027 468.759C33.1727 468.759 33.3877 468.639 33.5477 468.399C33.7077 468.159 33.7877 467.784 33.7877 467.274C33.7877 466.764 33.7077 466.389 33.5477 466.149C33.3877 465.909 33.1727 465.789 32.9027 465.789C32.6427 465.789 32.4277 465.914 32.2577 466.164C32.0977 466.404 32.0177 466.774 32.0177 467.274C32.0177 467.774 32.0977 468.149 32.2577 468.399C32.4277 468.639 32.6427 468.759 32.9027 468.759ZM40.3127 475.134C39.5127 475.134 38.8627 474.874 38.3627 474.354C37.8727 473.834 37.6277 473.124 37.6277 472.224C37.6277 471.334 37.8777 470.629 38.3777 470.109C38.8777 469.579 39.5227 469.314 40.3127 469.314C41.1127 469.314 41.7627 469.579 42.2627 470.109C42.7627 470.629 43.0127 471.334 43.0127 472.224C43.0127 473.124 42.7627 473.834 42.2627 474.354C41.7627 474.874 41.1127 475.134 40.3127 475.134ZM40.3127 473.709C40.5827 473.709 40.7977 473.589 40.9577 473.349C41.1177 473.109 41.1977 472.734 41.1977 472.224C41.1977 471.714 41.1177 471.339 40.9577 471.099C40.7977 470.859 40.5827 470.739 40.3127 470.739C40.0427 470.739 39.8277 470.859 39.6677 471.099C39.5077 471.339 39.4277 471.714 39.4277 472.224C39.4277 472.734 39.5077 473.109 39.6677 473.349C39.8277 473.589 40.0427 473.709 40.3127 473.709Z" fill="white"/>
<path d="M61.575 464.499H63.075V473.694H68.76V474.999H61.575V464.499ZM70.4813 464.499H71.9813V474.999H70.4813V464.499ZM85.9398 475.959C85.5998 476.359 85.2048 476.664 84.7548 476.874C84.3048 477.084 83.8198 477.189 83.2998 477.189C82.6398 477.189 82.0198 477.029 81.4398 476.709C80.8698 476.399 80.2148 475.864 79.4748 475.104C78.4848 475.054 77.5898 474.789 76.7898 474.309C75.9998 473.829 75.3798 473.194 74.9298 472.404C74.4898 471.604 74.2698 470.719 74.2698 469.749C74.2698 468.739 74.5098 467.824 74.9898 467.004C75.4798 466.184 76.1498 465.544 76.9998 465.084C77.8498 464.614 78.8048 464.379 79.8648 464.379C80.9148 464.379 81.8648 464.614 82.7148 465.084C83.5648 465.544 84.2298 466.184 84.7098 467.004C85.1898 467.814 85.4298 468.729 85.4298 469.749C85.4298 470.609 85.2548 471.399 84.9048 472.119C84.5648 472.839 84.0798 473.444 83.4498 473.934C82.8298 474.424 82.1148 474.764 81.3048 474.954C81.6548 475.324 81.9898 475.589 82.3098 475.749C82.6398 475.919 82.9748 476.004 83.3148 476.004C84.0548 476.004 84.6948 475.704 85.2348 475.104L85.9398 475.959ZM75.7698 469.749C75.7698 470.509 75.9448 471.199 76.2948 471.819C76.6548 472.429 77.1448 472.909 77.7648 473.259C78.3948 473.609 79.0948 473.784 79.8648 473.784C80.6248 473.784 81.3148 473.609 81.9348 473.259C82.5548 472.909 83.0398 472.429 83.3898 471.819C83.7498 471.199 83.9298 470.509 83.9298 469.749C83.9298 468.989 83.7498 468.304 83.3898 467.694C83.0398 467.074 82.5548 466.589 81.9348 466.239C81.3148 465.889 80.6248 465.714 79.8648 465.714C79.0948 465.714 78.3948 465.889 77.7648 466.239C77.1448 466.589 76.6548 467.074 76.2948 467.694C75.9448 468.304 75.7698 468.989 75.7698 469.749ZM92.0725 475.119C90.6725 475.119 89.5825 474.719 88.8025 473.919C88.0225 473.119 87.6325 471.969 87.6325 470.469V464.499H89.1325V470.409C89.1325 472.659 90.1175 473.784 92.0875 473.784C93.0475 473.784 93.7825 473.509 94.2925 472.959C94.8025 472.399 95.0575 471.549 95.0575 470.409V464.499H96.5125V470.469C96.5125 471.979 96.1225 473.134 95.3425 473.934C94.5625 474.724 93.4725 475.119 92.0725 475.119ZM99.5877 464.499H101.088V474.999H99.5877V464.499ZM104.231 464.499H108.656C109.766 464.499 110.751 464.719 111.611 465.159C112.471 465.599 113.136 466.219 113.606 467.019C114.086 467.809 114.326 468.719 114.326 469.749C114.326 470.779 114.086 471.694 113.606 472.494C113.136 473.284 112.471 473.899 111.611 474.339C110.751 474.779 109.766 474.999 108.656 474.999H104.231V464.499ZM108.566 473.694C109.416 473.694 110.161 473.529 110.801 473.199C111.451 472.869 111.951 472.409 112.301 471.819C112.651 471.219 112.826 470.529 112.826 469.749C112.826 468.969 112.651 468.284 112.301 467.694C111.951 467.094 111.451 466.629 110.801 466.299C110.161 465.969 109.416 465.804 108.566 465.804H105.731V473.694H108.566ZM116.624 464.499H118.124V474.999H116.624V464.499ZM123.352 465.804H119.752V464.499H128.437V465.804H124.837V474.999H123.352V465.804ZM133.974 471.369V474.999H132.489V471.339L128.319 464.499H129.924L133.284 470.034L136.659 464.499H138.144L133.974 471.369Z" fill="white"/>
</g>
<defs>
<filter id="filter0_i_122_4048" x="0" y="-0.000976562" width="300" height="45" filterUnits="userSpaceOnUse" color-interpolation-filters="sRGB">
<feFlood flood-opacity="0" result="BackgroundImageFix"/>
<feBlend mode="normal" in="SourceGraphic" in2="BackgroundImageFix" result="shape"/>
<feColorMatrix in="SourceAlpha" type="matrix" values="0 0 0 0 0 0 0 0 0 0 0 0 0 0 0 0 0 0 127 0" result="hardAlpha"/>
<feOffset dy="5"/>
<feGaussianBlur stdDeviation="5"/>
<feComposite in2="hardAlpha" operator="arithmetic" k2="-1" k3="1"/>
<feColorMatrix type="matrix" values="0 0 0 0 1 0 0 0 0 1 0 0 0 0 1 0 0 0 0.58 0"/>
<feBlend mode="normal" in2="shape" result="effect1_innerShadow_122_4048"/>
</filter>
<filter id="filter1_i_122_4048" x="0" y="44.999" width="300" height="45" filterUnits="userSpaceOnUse" color-interpolation-filters="sRGB">
<feFlood flood-opacity="0" result="BackgroundImageFix"/>
<feBlend mode="normal" in="SourceGraphic" in2="BackgroundImageFix" result="shape"/>
<feColorMatrix in="SourceAlpha" type="matrix" values="0 0 0 0 0 0 0 0 0 0 0 0 0 0 0 0 0 0 127 0" result="hardAlpha"/>
<feOffset dy="5"/>
<feGaussianBlur stdDeviation="5"/>
<feComposite in2="hardAlpha" operator="arithmetic" k2="-1" k3="1"/>
<feColorMatrix type="matrix" values="0 0 0 0 1 0 0 0 0 1 0 0 0 0 1 0 0 0 0.58 0"/>
<feBlend mode="normal" in2="shape" result="effect1_innerShadow_122_4048"/>
</filter>
<filter id="filter2_i_122_4048" x="0" y="89.999" width="246" height="45" filterUnits="userSpaceOnUse" color-interpolation-filters="sRGB">
<feFlood flood-opacity="0" result="BackgroundImageFix"/>
<feBlend mode="normal" in="SourceGraphic" in2="BackgroundImageFix" result="shape"/>
<feColorMatrix in="SourceAlpha" type="matrix" values="0 0 0 0 0 0 0 0 0 0 0 0 0 0 0 0 0 0 127 0" result="hardAlpha"/>
<feOffset dy="5"/>
<feGaussianBlur stdDeviation="5"/>
<feComposite in2="hardAlpha" operator="arithmetic" k2="-1" k3="1"/>
<feColorMatrix type="matrix" values="0 0 0 0 1 0 0 0 0 1 0 0 0 0 1 0 0 0 0.58 0"/>
<feBlend mode="normal" in2="shape" result="effect1_innerShadow_122_4048"/>
</filter>
<filter id="filter3_i_122_4048" x="0" y="134.999" width="181" height="45" filterUnits="userSpaceOnUse" color-interpolation-filters="sRGB">
<feFlood flood-opacity="0" result="BackgroundImageFix"/>
<feBlend mode="normal" in="SourceGraphic" in2="BackgroundImageFix" result="shape"/>
<feColorMatrix in="SourceAlpha" type="matrix" values="0 0 0 0 0 0 0 0 0 0 0 0 0 0 0 0 0 0 127 0" result="hardAlpha"/>
<feOffset dy="5"/>
<feGaussianBlur stdDeviation="5"/>
<feComposite in2="hardAlpha" operator="arithmetic" k2="-1" k3="1"/>
<feColorMatrix type="matrix" values="0 0 0 0 1 0 0 0 0 1 0 0 0 0 1 0 0 0 0.58 0"/>
<feBlend mode="normal" in2="shape" result="effect1_innerShadow_122_4048"/>
</filter>
<filter id="filter4_i_122_4048" x="0" y="179.999" width="181" height="45" filterUnits="userSpaceOnUse" color-interpolation-filters="sRGB">
<feFlood flood-opacity="0" result="BackgroundImageFix"/>
<feBlend mode="normal" in="SourceGraphic" in2="BackgroundImageFix" result="shape"/>
<feColorMatrix in="SourceAlpha" type="matrix" values="0 0 0 0 0 0 0 0 0 0 0 0 0 0 0 0 0 0 127 0" result="hardAlpha"/>
<feOffset dy="5"/>
<feGaussianBlur stdDeviation="5"/>
<feComposite in2="hardAlpha" operator="arithmetic" k2="-1" k3="1"/>
<feColorMatrix type="matrix" values="0 0 0 0 1 0 0 0 0 1 0 0 0 0 1 0 0 0 0.58 0"/>
<feBlend mode="normal" in2="shape" result="effect1_innerShadow_122_4048"/>
</filter>
<filter id="filter5_i_122_4048" x="0" y="224.999" width="335" height="45" filterUnits="userSpaceOnUse" color-interpolation-filters="sRGB">
<feFlood flood-opacity="0" result="BackgroundImageFix"/>
<feBlend mode="normal" in="SourceGraphic" in2="BackgroundImageFix" result="shape"/>
<feColorMatrix in="SourceAlpha" type="matrix" values="0 0 0 0 0 0 0 0 0 0 0 0 0 0 0 0 0 0 127 0" result="hardAlpha"/>
<feOffset dy="5"/>
<feGaussianBlur stdDeviation="5"/>
<feComposite in2="hardAlpha" operator="arithmetic" k2="-1" k3="1"/>
<feColorMatrix type="matrix" values="0 0 0 0 1 0 0 0 0 1 0 0 0 0 1 0 0 0 0.58 0"/>
<feBlend mode="normal" in2="shape" result="effect1_innerShadow_122_4048"/>
</filter>
<filter id="filter6_i_122_4048" x="0" y="269.999" width="320" height="45" filterUnits="userSpaceOnUse" color-interpolation-filters="sRGB">
<feFlood flood-opacity="0" result="BackgroundImageFix"/>
<feBlend mode="normal" in="SourceGraphic" in2="BackgroundImageFix" result="shape"/>
<feColorMatrix in="SourceAlpha" type="matrix" values="0 0 0 0 0 0 0 0 0 0 0 0 0 0 0 0 0 0 127 0" result="hardAlpha"/>
<feOffset dy="5"/>
<feGaussianBlur stdDeviation="5"/>
<feComposite in2="hardAlpha" operator="arithmetic" k2="-1" k3="1"/>
<feColorMatrix type="matrix" values="0 0 0 0 1 0 0 0 0 1 0 0 0 0 1 0 0 0 0.58 0"/>
<feBlend mode="normal" in2="shape" result="effect1_innerShadow_122_4048"/>
</filter>
<filter id="filter7_i_122_4048" x="0" y="314.999" width="300" height="45" filterUnits="userSpaceOnUse" color-interpolation-filters="sRGB">
<feFlood flood-opacity="0" result="BackgroundImageFix"/>
<feBlend mode="normal" in="SourceGraphic" in2="BackgroundImageFix" result="shape"/>
<feColorMatrix in="SourceAlpha" type="matrix" values="0 0 0 0 0 0 0 0 0 0 0 0 0 0 0 0 0 0 127 0" result="hardAlpha"/>
<feOffset dy="5"/>
<feGaussianBlur stdDeviation="5"/>
<feComposite in2="hardAlpha" operator="arithmetic" k2="-1" k3="1"/>
<feColorMatrix type="matrix" values="0 0 0 0 1 0 0 0 0 1 0 0 0 0 1 0 0 0 0.58 0"/>
<feBlend mode="normal" in2="shape" result="effect1_innerShadow_122_4048"/>
</filter>
<filter id="filter8_i_122_4048" x="0" y="359.999" width="300" height="45" filterUnits="userSpaceOnUse" color-interpolation-filters="sRGB">
<feFlood flood-opacity="0" result="BackgroundImageFix"/>
<feBlend mode="normal" in="SourceGraphic" in2="BackgroundImageFix" result="shape"/>
<feColorMatrix in="SourceAlpha" type="matrix" values="0 0 0 0 0 0 0 0 0 0 0 0 0 0 0 0 0 0 127 0" result="hardAlpha"/>
<feOffset dy="5"/>
<feGaussianBlur stdDeviation="5"/>
<feComposite in2="hardAlpha" operator="arithmetic" k2="-1" k3="1"/>
<feColorMatrix type="matrix" values="0 0 0 0 1 0 0 0 0 1 0 0 0 0 1 0 0 0 0.58 0"/>
<feBlend mode="normal" in2="shape" result="effect1_innerShadow_122_4048"/>
</filter>
<filter id="filter9_i_122_4048" x="0" y="404.999" width="300" height="45" filterUnits="userSpaceOnUse" color-interpolation-filters="sRGB">
<feFlood flood-opacity="0" result="BackgroundImageFix"/>
<feBlend mode="normal" in="SourceGraphic" in2="BackgroundImageFix" result="shape"/>
<feColorMatrix in="SourceAlpha" type="matrix" values="0 0 0 0 0 0 0 0 0 0 0 0 0 0 0 0 0 0 127 0" result="hardAlpha"/>
<feOffset dy="5"/>
<feGaussianBlur stdDeviation="5"/>
<feComposite in2="hardAlpha" operator="arithmetic" k2="-1" k3="1"/>
<feColorMatrix type="matrix" values="0 0 0 0 1 0 0 0 0 1 0 0 0 0 1 0 0 0 0.58 0"/>
<feBlend mode="normal" in2="shape" result="effect1_innerShadow_122_4048"/>
</filter>
<filter id="filter10_i_122_4048" x="0" y="449.999" width="246" height="45" filterUnits="userSpaceOnUse" color-interpolation-filters="sRGB">
<feFlood flood-opacity="0" result="BackgroundImageFix"/>
<feBlend mode="normal" in="SourceGraphic" in2="BackgroundImageFix" result="shape"/>
<feColorMatrix in="SourceAlpha" type="matrix" values="0 0 0 0 0 0 0 0 0 0 0 0 0 0 0 0 0 0 127 0" result="hardAlpha"/>
<feOffset dy="5"/>
<feGaussianBlur stdDeviation="5"/>
<feComposite in2="hardAlpha" operator="arithmetic" k2="-1" k3="1"/>
<feColorMatrix type="matrix" values="0 0 0 0 1 0 0 0 0 1 0 0 0 0 1 0 0 0 0.58 0"/>
<feBlend mode="normal" in2="shape" result="effect1_innerShadow_122_4048"/>
</filter>
</defs>
</svg>
