<svg width="16" height="14" viewBox="0 0 16 14" fill="none" xmlns="http://www.w3.org/2000/svg">
<path d="M13.5447 1.66106C12.5249 1.16994 11.4313 0.808111 10.2879 0.600875C10.2671 0.596876 10.2463 0.606871 10.2356 0.626862C10.0949 0.889404 9.93915 1.23191 9.83006 1.50112C8.60027 1.30788 7.37679 1.30788 6.17221 1.50112C6.0631 1.22593 5.90166 0.889404 5.76038 0.626862C5.74966 0.607538 5.72886 0.597543 5.70803 0.600875C4.56527 0.807449 3.47171 1.16928 2.45129 1.66106C2.44246 1.66505 2.43488 1.67172 2.42986 1.68038C0.355594 4.93289 -0.212633 8.10545 0.0661201 11.2387C0.0673814 11.254 0.0755799 11.2687 0.086932 11.278C1.45547 12.3328 2.78114 12.9732 4.08219 13.3977C4.10301 13.4043 4.12507 13.3963 4.13832 13.3783C4.44608 12.9372 4.72043 12.4721 4.95565 11.983C4.96953 11.9543 4.95628 11.9204 4.92791 11.909C4.49275 11.7358 4.0784 11.5245 3.67982 11.2847C3.64829 11.2653 3.64577 11.218 3.67477 11.1953C3.75865 11.1294 3.84255 11.0607 3.92264 10.9914C3.93713 10.9788 3.95732 10.9761 3.97435 10.9841C6.59286 12.2389 9.4277 12.2389 12.0153 10.9841C12.0323 10.9755 12.0525 10.9781 12.0677 10.9908C12.1478 11.0601 12.2316 11.1294 12.3161 11.1953C12.3451 11.218 12.3433 11.2653 12.3117 11.2847C11.9131 11.5292 11.4988 11.7358 11.063 11.9084C11.0346 11.9197 11.022 11.9543 11.0359 11.983C11.2762 12.4714 11.5505 12.9365 11.8526 13.3777C11.8652 13.3963 11.8879 13.4043 11.9087 13.3977C13.2161 12.9732 14.5417 12.3328 15.9103 11.278C15.9223 11.2687 15.9298 11.2547 15.9311 11.2393C16.2647 7.61698 15.3723 4.47044 13.5655 1.68104C13.5611 1.67172 13.5535 1.66505 13.5447 1.66106ZM5.34668 9.33087C4.55833 9.33087 3.90876 8.57123 3.90876 7.63832C3.90876 6.7054 4.54574 5.94577 5.34668 5.94577C6.15392 5.94577 6.79721 6.71207 6.78459 7.63832C6.78459 8.57123 6.14761 9.33087 5.34668 9.33087ZM10.6632 9.33087C9.87484 9.33087 9.22526 8.57123 9.22526 7.63832C9.22526 6.7054 9.86222 5.94577 10.6632 5.94577C11.4704 5.94577 12.1137 6.71207 12.1011 7.63832C12.1011 8.57123 11.4704 9.33087 10.6632 9.33087Z" fill="white"/>
</svg>
