<svg width="16" height="13" viewBox="0 0 16 13" fill="none" xmlns="http://www.w3.org/2000/svg">
<path fill-rule="evenodd" clip-rule="evenodd" d="M1.80247 2.84811C1.82147 2.66231 1.7499 2.47904 1.61057 2.35433L0.1919 0.653812V0.399994H4.59863L8.0047 7.82875L10.9991 0.399994H15.2V0.653812L13.9865 1.8108C13.882 1.89015 13.8301 2.02053 13.8516 2.14964V10.651C13.8301 10.7795 13.882 10.9098 13.9865 10.9892L15.1715 12.1462V12.4H9.21057V12.1462L10.4386 10.9608C10.5589 10.8412 10.5589 10.8059 10.5589 10.6226V3.75128L7.1459 12.3723H6.68483L2.71067 3.75128V9.52927C2.67773 9.77175 2.7588 10.0167 2.93043 10.1918L4.52707 12.1178V12.3723H0V12.1178L1.59663 10.1918C1.76763 10.0161 1.84363 9.76986 1.80247 9.52927V2.84811Z" fill="white"/>
</svg>
