<svg width="17" height="15" viewBox="0 0 17 15" fill="none" xmlns="http://www.w3.org/2000/svg">
<path d="M0.480756 7.29927L4.15924 8.6709L5.59321 13.2846C5.65555 13.5963 6.02964 13.6586 6.27902 13.4716L8.33646 11.7882C8.5235 11.6012 8.83525 11.6012 9.08463 11.7882L12.7631 14.4692C13.0125 14.6562 13.3866 14.5315 13.4489 14.2198L16.1922 1.12693C16.2545 0.815196 15.9428 0.503465 15.6311 0.628159L0.480756 6.48876C0.106675 6.61346 0.106675 7.17458 0.480756 7.29927ZM5.40617 7.98508L12.6384 3.55846C12.7631 3.49611 12.8878 3.68315 12.7631 3.7455L6.84014 9.29437C6.6531 9.48141 6.46606 9.7308 6.46606 10.0425L6.27902 11.5389C6.27902 11.7259 5.96729 11.7882 5.90494 11.5389L5.15677 8.7956C4.96973 8.48386 5.09444 8.10978 5.40617 7.98508Z" fill="white"/>
</svg>
