<svg width="17" height="13" viewBox="0 0 17 13" fill="none" xmlns="http://www.w3.org/2000/svg">
<path d="M16.4798 1.91999C15.9198 2.15999 15.2798 2.31999 14.6398 2.39999C15.2798 1.99999 15.8398 1.36 16.0798 0.639996C15.4398 1.04 14.7998 1.28 13.9998 1.44C13.4398 0.799996 12.5598 0.399994 11.6798 0.399994C9.9198 0.399994 8.4798 1.83999 8.4798 3.59999C8.4798 3.83999 8.4798 4.07999 8.5598 4.31999C5.9198 4.15999 3.5198 2.87999 1.9198 0.959991C1.6798 1.43999 1.5198 1.99999 1.5198 2.55999C1.5198 3.67999 2.0798 4.63999 2.9598 5.19999C2.3998 5.19999 1.9198 5.03999 1.5198 4.79999C1.5198 6.31999 2.6398 7.67999 4.0798 7.91999C3.8398 7.99999 3.5198 7.99999 3.1998 7.99999C2.9598 7.99999 2.7998 7.99999 2.5598 7.91999C2.9598 9.19999 4.1598 10.16 5.5998 10.16C4.4798 11.04 3.1198 11.52 1.5998 11.52C1.3598 11.52 1.1198 11.52 0.799805 11.44C2.2398 12.32 3.9198 12.88 5.7598 12.88C11.6798 12.88 14.8798 7.99999 14.8798 3.75999V3.35999C15.5198 3.11999 16.0798 2.55999 16.4798 1.91999Z" fill="white"/>
</svg>
